<svg width="249" height="72" viewBox="0 0 249 72" fill="none" xmlns="http://www.w3.org/2000/svg">
<path d="M0 58.4921V24.3575C0 21.6571 0.592419 19.1768 1.78747 16.9265C2.97231 14.6662 4.627 12.8859 6.74133 11.5858C8.85565 10.2856 11.2662 9.62549 13.9831 9.62549H24.8203C27.8131 9.62549 30.4585 10.3456 32.7363 11.7958C35.014 13.236 36.7709 15.1162 38.0068 17.4165C39.2427 19.7169 39.8555 22.1072 39.8555 24.5675C39.8555 26.1477 39.5797 27.6579 39.0384 29.1081C38.4971 30.5483 37.6697 31.8285 36.5768 32.9486C38.2928 33.9688 39.6002 35.479 40.5297 37.4492C41.4591 39.4295 41.9188 41.5598 41.9188 43.8401C41.9188 46.3505 41.3468 48.7308 40.2028 50.9611C39.0588 53.1914 37.3429 55.0116 35.0345 56.4018C32.7261 57.792 29.8865 58.4921 26.5159 58.4921H0ZM28.0174 44.9203C28.5383 44.3902 28.8038 43.7701 28.8038 43.07C28.8038 42.3299 28.5383 41.6998 28.0174 41.1898C27.4964 40.6797 26.7304 40.4196 25.7396 40.4196H15.1169V27.6479H24.5241C25.3821 27.6479 26.0358 27.3879 26.4852 26.8778C26.9347 26.3678 27.1594 25.7577 27.1594 25.0676C27.1594 24.3775 26.9244 23.7574 26.4444 23.2173C25.9643 22.6873 25.331 22.4172 24.5241 22.4172H15.1884C14.6164 22.4172 14.1159 22.6172 13.6869 23.0073C13.2579 23.4074 13.0434 23.8774 13.0434 24.4375V45.7304H25.8009C26.7508 45.7304 27.4862 45.4603 28.0174 44.9303V44.9203Z" fill="#1D1D1B"/>
<path d="M117.402 58.4923V24.4277C117.402 21.7274 118.076 19.247 119.435 16.9967C120.793 14.7364 122.622 12.9462 124.92 11.626C127.228 10.2958 129.761 9.63574 132.509 9.63574H144.276C147.034 9.63574 149.567 10.2958 151.865 11.626C154.173 12.9562 156.002 14.7464 157.35 16.9967C158.708 19.257 159.382 21.7374 159.382 24.4277V58.4923H146.339V24.4277C146.339 23.8677 146.135 23.3976 145.736 22.9975C145.338 22.5975 144.848 22.4075 144.276 22.4075H132.509C131.937 22.4075 131.447 22.6075 131.048 22.9975C130.65 23.3976 130.446 23.8677 130.446 24.4277V58.4923H117.402Z" fill="#1D1D1B"/>
<path d="M177.431 37.8293H189.126C189.698 37.8293 190.178 37.6293 190.587 37.2392C190.985 36.8392 191.189 36.3691 191.189 35.809V24.4275C191.189 23.8674 190.985 23.3974 190.587 22.9973C190.188 22.5973 189.698 22.4072 189.126 22.4072H177.431C176.859 22.4072 176.369 22.6073 175.97 22.9973C175.572 23.3974 175.368 23.8674 175.368 24.4275V58.5021H162.324V24.4375C162.324 21.7371 162.998 19.2568 164.357 17.0065C165.715 14.7462 167.544 12.956 169.842 11.6358C172.15 10.3056 174.683 9.64551 177.431 9.64551H189.126C191.884 9.64551 194.417 10.3056 196.715 11.6358C199.024 12.966 200.852 14.7562 202.2 17.0065C203.559 19.2668 204.233 21.7471 204.233 24.4375V35.8191C204.233 38.5194 203.559 40.9997 202.2 43.25C200.842 45.5104 199.013 47.3006 196.715 48.6208C194.407 49.951 191.874 50.611 189.126 50.611H177.431V37.8393V37.8293Z" fill="#1D1D1B"/>
<path d="M246.967 51.1311C245.609 53.3914 243.78 55.1817 241.482 56.5018C239.174 57.832 236.641 58.4921 233.893 58.4921H222.126C219.368 58.4921 216.835 57.832 214.537 56.5018C212.229 55.1717 210.4 53.3814 209.052 51.1311C207.694 48.8708 207.02 46.3905 207.02 43.7001V24.4375C207.02 21.7371 207.694 19.2568 209.052 17.0065C210.411 14.7462 212.239 12.956 214.537 11.6358C216.846 10.3056 219.379 9.64551 222.126 9.64551H233.893C236.651 9.64551 239.184 10.3056 241.482 11.6358C243.78 12.966 245.619 14.7562 246.967 17.0065C248.325 19.2668 249 21.7471 249 24.4375V43.7001C249 46.4005 248.325 48.8808 246.967 51.1311ZM235.343 22.9973C234.945 22.5973 234.455 22.4072 233.883 22.4072H222.116C221.544 22.4072 221.054 22.6073 220.655 22.9973C220.257 23.3974 220.053 23.8674 220.053 24.4275V43.6901C220.053 44.2502 220.257 44.7303 220.655 45.1203C221.054 45.5204 221.544 45.7104 222.116 45.7104H233.883C234.455 45.7104 234.935 45.5104 235.343 45.1203C235.742 44.7203 235.946 44.2502 235.946 43.6901V24.4275C235.946 23.8674 235.742 23.3974 235.343 22.9973Z" fill="#1D1D1B"/>
<path d="M49.4778 18.3267C49.5289 16.5265 48.4462 14.6662 47.7925 12.866C46.0356 7.99535 48.1091 4.18483 53.0834 2.39459C60.4784 -0.255771 64.37 1.90453 66.4639 8.92548C68.6702 16.3165 71.3769 23.5775 73.8998 30.8784C74.4922 26.5078 75.7281 20.9571 75.9937 16.8365C76.0856 15.4063 75.2889 13.9261 74.9314 12.4659C74.6046 11.1158 74.0836 9.75559 74.0632 8.3854C74.0121 5.62503 75.1868 3.29471 77.8118 2.10455C79.7933 1.20443 81.9281 0.474329 84.0731 0.114281C87.9544 -0.535807 91.0697 1.62449 92.4384 5.65503C94.563 11.9159 96.616 18.1967 98.7099 24.4676C99.4045 26.5679 99.0572 25.4977 99.9152 28.058L101.151 19.957L114.235 22.4773C114.235 22.4773 108.689 49.541 108.485 54.2816C108.403 56.0918 109.465 57.9721 110.088 59.7923C111.764 64.713 109.649 68.5135 104.685 70.2237C97.3004 72.7741 93.4496 70.5438 91.4681 63.4628C89.4151 56.1318 86.8717 48.9209 84.5021 41.6699C83.9403 45.9305 82.8576 51.1612 82.6635 55.0917C82.592 56.5119 83.4091 57.9821 83.7973 59.4323C84.1446 60.7725 84.6859 62.1227 84.7268 63.4828C84.8085 66.2332 83.6645 68.5635 81.0395 69.7937C79.0579 70.7138 76.9232 71.4839 74.7782 71.864C70.8866 72.5741 67.7305 70.4638 66.2903 66.4732C64.0738 60.2724 61.9186 54.0516 59.7328 47.8507C58.9974 45.7704 59.3753 46.8306 58.4765 44.2903L57.3427 52.3613L44.1562 50.051C44.1562 50.051 49.3655 23.0374 49.4982 18.3167L49.4778 18.3267Z" fill="url(#paint0_linear_60_302)"/>
<defs>
<linearGradient id="paint0_linear_60_302" x1="49.1203" y1="45.8505" x2="115.45" y2="23.6717" gradientUnits="userSpaceOnUse">
<stop offset="0.13" stop-color="#F7B609"/>
<stop offset="0.4" stop-color="#F19000"/>
<stop offset="0.5" stop-color="#F7B609"/>
<stop offset="0.77" stop-color="#F19000"/>
</linearGradient>
</defs>
</svg>
