<svg width="65" height="72" viewBox="0 0 65 72" fill="none" xmlns="http://www.w3.org/2000/svg">
<path d="M32.9852 71.9993C30.5183 71.9993 28.053 71.7241 25.6124 71.1752C21.3569 70.2178 17.3901 68.4753 13.8219 65.9958C10.1265 63.4285 7.02333 60.1798 4.59763 56.3401C2.46132 52.9579 1.04882 49.257 0.40052 45.3402C-0.226094 41.5575 -0.116923 37.7337 0.724295 33.9758C1.56551 30.2179 3.09615 26.7142 5.27435 23.5621C7.52956 20.2983 10.3837 17.5579 13.7561 15.415L36.11 1.21423C37.8665 0.0985589 39.9512 -0.264334 41.9798 0.192281C44.0085 0.648896 45.7388 1.87028 46.8514 3.63151L60.2982 24.9162C62.4831 28.3742 63.927 32.1591 64.5903 36.1644C65.2311 40.0325 65.1197 43.9426 64.2598 47.7859C63.3999 51.6285 61.8348 55.2117 59.6073 58.435C57.3012 61.7723 54.3828 64.575 50.9341 66.7658L50.7494 66.882C46.9703 69.2491 42.8435 70.8176 38.4796 71.5441C36.6536 71.8478 34.8187 72 32.9852 72V71.9993ZM40.263 1.49989C39.0853 1.49989 37.9293 1.83354 36.9101 2.48135L14.5547 16.6814C1.47429 24.9904 -2.42672 42.4205 5.85983 55.5371C15.3271 70.5229 35.188 74.9909 50.1333 65.4979L50.2051 65.4522C56.6537 61.3299 61.1252 54.9418 62.8002 47.4568C64.4811 39.9433 63.1441 32.2235 59.0345 25.7185L45.5877 4.43377C44.6889 3.0107 43.2914 2.02399 41.6523 1.65585C41.191 1.55163 40.7251 1.50064 40.263 1.50064V1.49989Z" fill="#E30613"/>
<path d="M34.6812 45.5907C34.6812 43.2536 32.5987 42.9057 26.847 42.7565C21.7892 42.6073 10.7816 42.2594 10.7816 32.564V31.9177C10.7816 26.1999 14.4508 21.1284 27.0459 21.1284H28.8308C33.3427 21.1284 37.7066 21.7252 41.7728 22.7689V30.973C36.9633 29.8296 32.2525 29.133 27.3929 29.133C20.2032 29.133 19.7067 30.7736 19.7067 31.9177C19.7067 34.3043 21.8887 34.6522 27.4916 34.8014C32.2024 34.9011 43.607 35.249 43.607 45.0433V45.6896C43.607 51.358 39.9378 56.4295 27.2934 56.4295H25.5085C20.302 56.4295 15.3436 55.8326 10.6328 54.8384V46.4852C15.9882 47.6788 21.9881 48.4736 27.0459 48.4736C34.1368 48.4736 34.6819 46.833 34.6819 45.5899L34.6812 45.5907Z" fill="#E30613"/>
<path d="M53.8704 22.1226V55.4352H44.9453V22.1226H53.8704Z" fill="#E30613"/>
</svg>
