<svg xmlns="http://www.w3.org/2000/svg" xmlns:xlink="http://www.w3.org/1999/xlink" xml:space="preserve" width="120px" height="120px" style="shape-rendering:geometricPrecision; text-rendering:geometricPrecision; image-rendering:optimizeQuality; fill-rule:evenodd; clip-rule:evenodd" viewBox="0 0 120 120">
 <defs>
  <style type="text/css">
   <![CDATA[
    .str0 {stroke:#FEFEFE;stroke-width:2.08346}
    .fil6 {fill:#2B2A29}
    .fil4 {fill:url(#id0)}
    .fil1 {fill:url(#id1)}
    .fil0 {fill:url(#id2)}
    .fil2 {fill:url(#id3)}
    .fil3 {fill:url(#id4)}
    .fil5 {fill:url(#id5)}
   ]]>
  </style>
  <radialGradient id="id0" gradientUnits="userSpaceOnUse" cx="94.8555" cy="38.1531" r="26.1059" fx="94.8555" fy="38.1531">
   <stop offset="0" style="stop-color:#FECC00"/>
   <stop offset="0.521569" style="stop-color:#F6A50D"/>
   <stop offset="1" style="stop-color:#EF7F1A"/>
  </radialGradient>
  <radialGradient id="id1" gradientUnits="userSpaceOnUse" cx="19.7504" cy="64.3524" r="25.0925" fx="19.7504" fy="64.3524">
   <stop offset="0" style="stop-color:#FECC00"/>
   <stop offset="0.509804" style="stop-color:#F6A50D"/>
   <stop offset="1" style="stop-color:#EF7F1A"/>
  </radialGradient>
  <radialGradient id="id2" gradientUnits="userSpaceOnUse" cx="97.6228" cy="77.8476" r="25.0913" fx="97.6228" fy="77.8476">
   <stop offset="0" style="stop-color:#00A0E3"/>
   <stop offset="0.509804" style="stop-color:#1D68B4"/>
   <stop offset="1" style="stop-color:#393185"/>
  </radialGradient>
  <radialGradient id="id3" gradientUnits="userSpaceOnUse" cx="80.0929" cy="95.8583" r="25.774" fx="80.0929" fy="95.8583">
   <stop offset="0" style="stop-color:#FECC00"/>
   <stop offset="0.560784" style="stop-color:#F6A50D"/>
   <stop offset="1" style="stop-color:#EF7F1A"/>
  </radialGradient>
  <radialGradient id="id4" gradientUnits="userSpaceOnUse" xlink:href="#id2" cx="55.8472" cy="27.1571" r="25.774" fx="55.8472" fy="27.1571">
  </radialGradient>
  <radialGradient id="id5" gradientUnits="userSpaceOnUse" xlink:href="#id2" cx="46.3996" cy="94.3004" r="26.1071" fx="46.3996" fy="94.3004">
  </radialGradient>
 </defs>
 <g id="Слой_x0020_1">
  <metadata id="CorelCorpID_0Corel-Layer"/>
  <g id="_292888848">
   <path id="_288785768" class="fil0 str0" d="M80.785 58.6795c2.72126,-1.30512 5.74488,-2.75787 9.12402,-4.37953 4.33465,-2.07992 9.34016,-4.48583 15.1866,-7.29213 2.71654,-1.30512 4.56732,-0.131102 3.94843,2.69646l-0.0543307 0.255118 -0.0177165 0.0791339 -0.0566929 0.258661 -0.0165354 0.0744094 -0.0566929 0.263386 -0.0165354 0.0720472 -0.0566929 0.264567 -0.0153543 0.069685 -0.0602362 0.266929 -0.0129921 0.0673228 -0.0590551 0.270472 -0.0129921 0.0637795 -0.0602362 0.272835 -0.011811 0.0614173 -0.0614173 0.276378 -0.0129921 0.057874 -0.0602362 0.279921 -0.0129921 0.0543307 -0.0614173 0.282283 -0.011811 0.0519685 -0.0625984 0.285827 -0.00944882 0.0484252 -0.0625984 0.28937 -0.011811 0.0448819 -0.0637795 0.291732 -0.00826772 0.0425197 -0.0649606 0.295276 -0.00944882 0.0401575 -0.0625984 0.297638 -0.00944882 0.0366142 -0.0661417 0.3 -0.00590551 0.034252 -0.0661417 0.302362 -0.00708661 0.0318898 -0.0661417 0.305906 -0.00708661 0.0307087 -0.0661417 0.307087 -0.00708661 0.0283465 -0.0673228 0.307087 -0.00472441 0.0271654 -0.0685039 0.31063 -0.00590551 0.023622 -0.0685039 0.314173 -0.00354331 0.0200787 -0.0685039 0.316535 -0.00590551 0.0188976 -0.069685 0.317717 -0.00354331 0.0165354 -0.0685039 0.320079 -0.00354331 0.0153543 -0.0720472 0.322441 -0.0023622 0.0129921 -0.0708661 0.323622 -0.0011811 0.00944882 -0.0708661 0.327165 -0.0023622 0.00826772 -0.0720472 0.328346 0 0.00708661 -0.0720472 0.329528 -0.0011811 0.00590551 -0.0720472 0.33189 -0.0023622 0.0023622 -0.0720472 0.334252 0 0 -0.0732283 0.336614 0 0 -0.0744094 0.334252 0 0.0023622 -0.0732283 0.333071 -0.0011811 0.00354331 -0.0708661 0.33189 -0.0011811 0.00472441 -0.0732283 0.330709 -0.0011811 0.00590551 -0.0720472 0.329528 -0.0011811 0.00708661 -0.0708661 0.327165 -0.0011811 0.00944882 -0.0720472 0.325984 -0.0023622 0.0106299 -0.069685 0.323622 -0.00354331 0.0129921 -0.069685 0.323622 -0.0023622 0.0129921 -0.0708661 0.322441 -0.00354331 0.0141732 -0.0708661 0.32126 -0.00354331 0.0153543 -0.0685039 0.320079 -0.00472441 0.0165354 -0.069685 0.318898 -0.00354331 0.0177165 -0.069685 0.316535 -0.00354331 0.0200787 -0.0685039 0.315354 -0.00708661 0.0212598 -0.0673228 0.312992 -0.00472441 0.023622 -0.0685039 0.31063 -0.00354331 0.0259843 -0.0685039 0.309449 -0.00590551 0.0271654 -0.0673228 0.309449 -0.00472441 0.0271654 -0.0673228 0.308268 -0.00708661 0.0283465 -0.0673228 0.307087 -0.00590551 0.0283465 -0.0673228 0.307087 -0.00590551 0.0295276 -0.0673228 0.305906 -0.00590551 0.0295276 -0.0661417 0.305906 -0.00826772 0.0295276 -0.0673228 0.305906 -0.00590551 0.0295276 -0.0661417 0.304724 -0.00708661 0.0307087 -0.0673228 0.304724 -0.00708661 0.0307087 -0.0661417 0.304724 -0.00472441 0.0295276 -0.0661417 0.305906 -0.00708661 0.0295276 -0.0673228 0.307087 -0.00472441 0.0283465 -0.0661417 0.305906 -0.00708661 0.0295276 -0.0673228 0.307087 -0.00708661 0.0283465 -0.0673228 0.308268 -0.00590551 0.0271654 -0.0673228 0.309449 -0.00590551 0.0259843 -0.0673228 0.31063 -0.00590551 0.0248031 -0.0685039 0.311811 -0.00590551 0.023622 -0.0685039 0.311811 -0.00354331 0.023622 -0.0685039 0.312992 -0.00590551 0.0212598 -0.0685039 0.315354 -0.0023622 0.0200787 -0.069685 0.316535 -0.00472441 0.0177165 -0.0685039 0.318898 -0.00354331 0.0165354 -0.069685 0.320079 -0.00354331 0.0165354 -0.069685 0.320079 -0.00354331 0.0141732 -0.069685 0.322441 -0.00354331 0.0129921 -0.0708661 0.323622 -0.0023622 0.011811 -0.0708661 0.324803 -0.0011811 0.0106299 -0.0732283 0.325984 -0.0023622 0.00944882 -0.0708661 0.327165 -0.0011811 0.00708661 -0.0720472 0.329528 -0.0011811 0.00590551 -0.0732283 0.330709 -0.0011811 0.00354331 -0.0708661 0.333071 -0.0011811 0.00354331 -0.0732283 0.334252 0 0.0011811 -0.0720472 0.335433 0 0 -0.0732283 0.335433 0 0 -0.0732283 0.334252 -0.0011811 0.00354331 -0.0732283 0.330709 0 0.00590551 -0.0732283 0.329528 0 0.00826772 -0.0720472 0.325984 -0.00354331 0.00944882 -0.0708661 0.325984 -0.0023622 0.0106299 -0.069685 0.325984 -0.0023622 0.011811 -0.0720472 0.32126 -0.00354331 0.0153543 -0.0673228 0.318898 -0.00472441 0.0177165 -0.0685039 0.317717 -0.00472441 0.0200787 -0.069685 0.314173 -0.00354331 0.0224409 -0.0685039 0.312992 -0.00472441 0.023622 -0.0673228 0.31063 -0.00590551 0.0259843 -0.0685039 0.309449 -0.00590551 0.0271654 -0.0673228 0.308268 -0.00590551 0.0295276 -0.0661417 0.304724 -0.00826772 0.0318898 -0.0661417 0.302362 -0.00708661 0.034252 -0.0661417 0.301181 -0.00944882 0.0366142 -0.0625984 0.297638 -0.00944882 0.0401575 -0.0661417 0.294094 -0.00708661 0.0425197 -0.0637795 0.292913 -0.00944882 0.0448819 -0.0625984 0.28937 -0.0106299 0.0484252 -0.0625984 0.285827 -0.011811 0.0507874 -0.0614173 0.282283 -0.011811 0.0543307 -0.0614173 0.281102 -0.0129921 0.057874 -0.0602362 0.275197 -0.0141732 0.0614173 -0.057874 0.274016 -0.0153543 0.0637795 -0.057874 0.270472 -0.0153543 0.0673228 -0.0590551 0.266929 -0.0165354 0.069685 -0.0566929 0.264567 -0.0141732 0.0732283 -0.057874 0.261024 -0.0165354 0.0767717 -0.057874 0.25748 -0.0153543 0.0791339 -0.0555118 0.255118c-0.616535,2.82874 -2.78976,3.12402 -4.71496,0.805512 -4.14449,-4.98898 -7.6937,-9.25984 -10.7657,-12.9555 -2.39764,-2.88425 -4.54016,-5.4626 -6.47008,-7.78346l-19.4091 -4.23543 2.39528 -10.9748 19.4079 4.23543z"/>
   <path id="_288785264" class="fil1 str0" d="M41.9929 50.2689c-1.92874,-2.32205 -4.07244,-4.90039 -6.47126,-7.78346 -3.07087,-3.69685 -6.62008,-7.96772 -10.7646,-12.9555 -1.92638,-2.3185 -4.09843,-2.02205 -4.71496,0.804331l-0.0543307 0.255118 -0.0200787 0.0791339 -0.0555118 0.258661 -0.0165354 0.0767717 -0.0566929 0.259843 -0.0165354 0.0744094 -0.057874 0.264567 -0.0153543 0.0685039 -0.057874 0.269291 -0.0153543 0.0661417 -0.057874 0.270472 -0.0153543 0.0625984 -0.0590551 0.275197 -0.011811 0.057874 -0.0625984 0.279921 -0.011811 0.0566929 -0.0602362 0.279921 -0.0106299 0.0543307 -0.0637795 0.283465 -0.0106299 0.0507874 -0.0614173 0.287008 -0.011811 0.0472441 -0.0625984 0.28937 -0.00944882 0.0448819 -0.0637795 0.292913 -0.0106299 0.0413386 -0.0637795 0.295276 -0.00826772 0.0401575 -0.0649606 0.296457 -0.00944882 0.0377953 -0.0649606 0.298819 -0.00590551 0.0366142 -0.0673228 0.301181 -0.00708661 0.0330709 -0.0661417 0.303543 -0.00826772 0.0307087 -0.0661417 0.307087 -0.00590551 0.0271654 -0.0673228 0.309449 -0.00590551 0.0259843 -0.0673228 0.311811 -0.00354331 0.0224409 -0.0685039 0.314173 -0.00590551 0.0212598 -0.069685 0.315354 -0.0023622 0.0188976 -0.069685 0.318898 -0.00472441 0.0153543 -0.069685 0.32126 -0.00354331 0.0141732 -0.069685 0.322441 -0.00354331 0.0129921 -0.069685 0.323622 -0.00354331 0.0106299 -0.069685 0.327165 -0.00354331 0.00826772 -0.0720472 0.328346 -0.0011811 0.00708661 -0.0720472 0.329528 0 0.00472441 -0.0732283 0.33189 0 0.00354331 -0.0732283 0.334252 0 0.0011811 -0.0708661 0.335433 0 0 -0.0755906 0.334252 0 0.0011811 -0.0720472 0.334252 -0.0011811 0.00354331 -0.0732283 0.330709 0 0.00590551 -0.0720472 0.329528 -0.0023622 0.00708661 -0.0708661 0.328346 -0.0023622 0.00826772 -0.0720472 0.327165 0 0.00944882 -0.0732283 0.325984 -0.0023622 0.0106299 -0.0708661 0.324803 -0.0023622 0.011811 -0.069685 0.322441 -0.00354331 0.0141732 -0.0708661 0.32126 -0.0023622 0.0153543 -0.0685039 0.318898 -0.00354331 0.0177165 -0.0708661 0.317717 -0.00472441 0.0188976 -0.0685039 0.316535 -0.00354331 0.0200787 -0.0685039 0.315354 -0.00472441 0.0212598 -0.0708661 0.314173 -0.00354331 0.0224409 -0.0673228 0.312992 -0.00590551 0.023622 -0.0685039 0.311811 -0.00590551 0.0248031 -0.0673228 0.31063 -0.00590551 0.0248031 -0.0685039 0.31063 -0.00472441 0.0259843 -0.0673228 0.309449 -0.00590551 0.0271654 -0.0673228 0.307087 -0.00590551 0.0295276 -0.0673228 0.305906 -0.00472441 0.0295276 -0.0673228 0.305906 -0.00708661 0.0295276 -0.0661417 0.305906 -0.00590551 0.0295276 -0.0673228 0.307087 -0.00708661 0.0283465 -0.0661417 0.305906 -0.00590551 0.0295276 -0.0673228 0.305906 -0.00708661 0.0295276 -0.0661417 0.305906 -0.00708661 0.0295276 -0.0673228 0.307087 -0.00708661 0.0283465 -0.0661417 0.307087 -0.00590551 0.0271654 -0.0673228 0.307087 -0.00590551 0.0295276 -0.0661417 0.307087 -0.00708661 0.0271654 -0.0673228 0.308268 -0.00472441 0.0271654 -0.0673228 0.309449 -0.00472441 0.0259843 -0.069685 0.31063 -0.00472441 0.0248031 -0.0673228 0.311811 -0.00590551 0.0224409 -0.0685039 0.314173 -0.00590551 0.0224409 -0.0685039 0.314173 -0.00354331 0.0212598 -0.069685 0.315354 -0.00354331 0.0200787 -0.069685 0.314173 -0.00472441 0.0200787 -0.0685039 0.316535 -0.00472441 0.0200787 -0.069685 0.316535 -0.0023622 0.0188976 -0.0708661 0.317717 -0.0023622 0.0165354 -0.0708661 0.322441 -0.0023622 0.0129921 -0.0685039 0.323622 -0.00354331 0.011811 -0.0720472 0.322441 -0.0023622 0.011811 -0.069685 0.324803 -0.0023622 0.011811 -0.0708661 0.324803 -0.0023622 0.00944882 -0.0732283 0.329528 -0.0011811 0.00590551 -0.0720472 0.330709 0 0.00472441 -0.0732283 0.329528 -0.0011811 0.00590551 -0.0732283 0.330709 0 0.00354331 -0.0744094 0.334252 0 0 -0.0708661 0.334252 0 0.0023622 -0.0732283 0.333071 -0.0011811 0.00354331 -0.0708661 0.33189 -0.0011811 0.00472441 -0.0720472 0.33189 -0.0023622 0.00472441 -0.0720472 0.329528 -0.0011811 0.00944882 -0.0708661 0.324803 -0.00354331 0.011811 -0.069685 0.323622 -0.00354331 0.0129921 -0.0708661 0.32126 -0.0023622 0.0153543 -0.069685 0.318898 -0.00472441 0.0188976 -0.0673228 0.317717 -0.00590551 0.0200787 -0.069685 0.315354 -0.00472441 0.0200787 -0.0685039 0.314173 -0.00472441 0.023622 -0.0673228 0.31063 -0.00590551 0.0259843 -0.0673228 0.308268 -0.00472441 0.0295276 -0.0661417 0.305906 -0.00826772 0.0307087 -0.0673228 0.304724 -0.00472441 0.0330709 -0.0673228 0.301181 -0.00708661 0.0354331 -0.0649606 0.3 -0.00944882 0.0366142 -0.0649606 0.296457 -0.00826772 0.0413386 -0.0649606 0.292913 -0.00826772 0.0448819 -0.0649606 0.28937 -0.0106299 0.0472441 -0.0625984 0.287008 -0.0106299 0.0507874 -0.0625984 0.284646 -0.0106299 0.0519685 -0.0614173 0.283465 -0.011811 0.0543307 -0.0614173 0.279921 -0.0106299 0.0566929 -0.0614173 0.276378 -0.0141732 0.0602362 -0.057874 0.275197 -0.0141732 0.0625984 -0.0602362 0.271654 -0.0141732 0.0661417 -0.057874 0.266929 -0.0165354 0.0708661 -0.0566929 0.265748 -0.0165354 0.0708661 -0.057874 0.262205 -0.0165354 0.0755906 -0.0555118 0.258661 -0.0188976 0.0791339 -0.0543307 0.255118c-0.617717,2.82638 1.23543,3.99921 3.95079,2.69646 5.84764,-2.80866 10.852,-5.21339 15.1843,-7.29213 3.3815,-1.62283 6.40394,-3.07323 9.1252,-4.38071l19.4079 4.23661 2.39646 -10.9748 -19.4091 -4.23543z"/>
   <path id="_288785432" class="fil2 str0" d="M71.5996 77.1567c2.48976,1.70197 5.25827,3.59409 8.35394,5.71063 3.9685,2.71299 8.55236,5.84646 13.9075,9.50551 2.4874,1.69961 2.39646,3.88937 -0.359055,4.76929l-0.249213 0.080315 -0.0779528 0.0224409 -0.250394 0.0826772 -0.0744094 0.0224409 -0.256299 0.0814961 -0.069685 0.0212598 -0.258661 0.0838583 -0.0673228 0.0212598 -0.262205 0.0826772 -0.0637795 0.0224409 -0.265748 0.0826772 -0.0614173 0.0200787 -0.265748 0.0850394 -0.0590551 0.0188976 -0.271654 0.0850394 -0.0543307 0.0200787 -0.274016 0.0850394 -0.0519685 0.0177165 -0.276378 0.0885827 -0.0496063 0.0141732 -0.27874 0.0909449 -0.0484252 0.0153543 -0.281102 0.0897638 -0.046063 0.0129921 -0.283465 0.0909449 -0.0413386 0.0129921 -0.287008 0.0909449 -0.0389764 0.0129921 -0.291732 0.0933071 -0.034252 0.0129921 -0.291732 0.0909449 -0.0354331 0.011811 -0.295276 0.0933071 -0.0307087 0.00944882 -0.295276 0.0968504 -0.0318898 0.00826772 -0.298819 0.0956693 -0.0271654 0.00826772 -0.301181 0.0968504 -0.0259843 0.00708661 -0.303543 0.0968504 -0.0212598 0.00708661 -0.305906 0.0980315 -0.0212598 0.00708661 -0.308268 0.0968504 -0.0188976 0.00590551 -0.309449 0.0992126 -0.0177165 0.00472441 -0.311811 0.100394 -0.0141732 0.00472441 -0.311811 0.100394 -0.0129921 0.00472441 -0.316535 0.100394 -0.0106299 0.00354331 -0.317717 0.100394 -0.00944882 0.00354331 -0.320079 0.101575 -0.00590551 0.0023622 -0.322441 0.102756 -0.00472441 0.0011811 -0.324803 0.103937 -0.0023622 0 -0.325984 0.103937 -0.0023622 0 -0.324803 0.103937 0 0 -0.325984 0.105118 -0.0023622 0 -0.324803 0.103937 -0.00354331 0 -0.323622 0.105118 -0.00354331 0.0011811 -0.322441 0.102756 -0.00708661 0.0023622 -0.32126 0.101575 -0.00708661 0.00354331 -0.320079 0.101575 -0.00826772 0.0023622 -0.317717 0.100394 -0.011811 0.00354331 -0.314173 0.101575 -0.011811 0.0023622 -0.315354 0.101575 -0.0141732 0.00354331 -0.312992 0.100394 -0.0141732 0.00590551 -0.312992 0.0980315 -0.0153543 0.00590551 -0.311811 0.0992126 -0.0165354 0.00590551 -0.311811 0.0968504 -0.0165354 0.00708661 -0.309449 0.0992126 -0.0188976 0.00590551 -0.305906 0.0980315 -0.023622 0.00708661 -0.303543 0.0968504 -0.023622 0.00708661 -0.304724 0.0968504 -0.0224409 0.00708661 -0.303543 0.0980315 -0.0248031 0.00708661 -0.303543 0.0956693 -0.023622 0.00826772 -0.302362 0.0968504 -0.0271654 0.00826772 -0.3 0.0956693 -0.0283465 0.00944882 -0.297638 0.0944882 -0.0295276 0.00944882 -0.297638 0.0944882 -0.0295276 0.0106299 -0.298819 0.0956693 -0.0283465 0.00826772 -0.298819 0.0956693 -0.0271654 0.00944882 -0.298819 0.0944882 -0.0295276 0.00826772 -0.297638 0.0956693 -0.0283465 0.00944882 -0.298819 0.0956693 -0.0283465 0.00826772 -0.297638 0.0956693 -0.0295276 0.00826772 -0.298819 0.0956693 -0.0283465 0.00826772 -0.298819 0.0956693 -0.0295276 0.0106299 -0.297638 0.0944882 -0.0271654 0.00826772 -0.301181 0.0956693 -0.0259843 0.00944882 -0.303543 0.0968504 -0.0248031 0.00708661 -0.301181 0.0968504 -0.023622 0.00708661 -0.305906 0.0980315 -0.0224409 0.00590551 -0.304724 0.0980315 -0.0224409 0.00708661 -0.305906 0.0968504 -0.0212598 0.00708661 -0.307087 0.0980315 -0.0177165 0.00590551 -0.308268 0.0980315 -0.0200787 0.00590551 -0.309449 0.0992126 -0.0177165 0.00472441 -0.31063 0.100394 -0.0153543 0.00590551 -0.312992 0.0992126 -0.0141732 0.00472441 -0.312992 0.0992126 -0.0153543 0.00472441 -0.314173 0.101575 -0.011811 0.0023622 -0.315354 0.101575 -0.0106299 0.00354331 -0.318898 0.100394 -0.00826772 0.0023622 -0.318898 0.101575 -0.00944882 0.00354331 -0.318898 0.101575 -0.00708661 0.0023622 -0.323622 0.102756 -0.0023622 0.0011811 -0.323622 0.103937 -0.00472441 0 -0.324803 0.105118 -0.0011811 0 -0.325984 0.103937 0 0 -0.327165 0.105118 -0.0023622 0 -0.324803 0.103937 -0.00354331 0 -0.322441 0.103937 -0.00590551 0.0011811 -0.32126 0.101575 -0.00590551 0.00354331 -0.32126 0.101575 -0.00944882 0.0023622 -0.316535 0.101575 -0.0106299 0.00354331 -0.316535 0.100394 -0.0129921 0.00472441 -0.312992 0.0992126 -0.0129921 0.00590551 -0.312992 0.0980315 -0.0177165 0.00590551 -0.309449 0.100394 -0.0188976 0.00590551 -0.308268 0.0968504 -0.0200787 0.00826772 -0.305906 0.0968504 -0.0224409 0.00708661 -0.303543 0.0968504 -0.0248031 0.00708661 -0.302362 0.0968504 -0.0271654 0.00708661 -0.3 0.0956693 -0.0283465 0.0106299 -0.296457 0.0944882 -0.0318898 0.00944882 -0.294094 0.0944882 -0.0354331 0.011811 -0.291732 0.092126 -0.0366142 0.0129921 -0.290551 0.0897638 -0.0389764 0.0141732 -0.285827 0.0909449 -0.0413386 0.0141732 -0.285827 0.0909449 -0.0437008 0.0141732 -0.282283 0.0885827 -0.046063 0.0153543 -0.279921 0.0897638 -0.0496063 0.0141732 -0.276378 0.0897638 -0.0543307 0.0165354 -0.271654 0.0874016 -0.0555118 0.0177165 -0.270472 0.0862205 -0.0590551 0.0188976 -0.26811 0.0850394 -0.0602362 0.0200787 -0.265748 0.0838583 -0.0637795 0.0200787 -0.259843 0.0826772 -0.0685039 0.023622 -0.258661 0.080315 -0.0708661 0.023622 -0.255118 0.0814961 -0.0732283 0.0224409 -0.252756 0.0814961 -0.0779528 0.023622 -0.248031 0.080315c-2.75669,0.879921 -4.09843,-0.853937 -3.05551,-3.68031 2.24764,-6.08386 4.17283,-11.2937 5.83819,-15.802 1.29685,-3.5185 2.46024,-6.66378 3.50433,-9.49606l-6.03543 -18.9248 10.7008 -3.41457 6.0378 18.9283z"/>
   <path id="_288785528" class="fil3 str0" d="M59.4862 39.3543c1.04528,-2.8311 2.2063,-5.97756 3.50551,-9.49488 1.66299,-4.50945 3.58819,-9.71929 5.83583,-15.8031 1.04528,-2.82638 -0.297638,-4.55787 -3.05551,-3.68031l-0.24685 0.080315 -0.0779528 0.0248031 -0.251575 0.080315 -0.0732283 0.0224409 -0.255118 0.0826772 -0.0720472 0.0212598 -0.25748 0.0826772 -0.0673228 0.0224409 -0.263386 0.0826772 -0.0637795 0.0200787 -0.264567 0.0850394 -0.0614173 0.0200787 -0.266929 0.0850394 -0.057874 0.0188976 -0.270472 0.0862205 -0.0555118 0.0177165 -0.274016 0.0862205 -0.0531496 0.0177165 -0.275197 0.0874016 -0.0507874 0.0165354 -0.27874 0.0897638 -0.0472441 0.0141732 -0.281102 0.0897638 -0.0448819 0.0141732 -0.284646 0.0909449 -0.0413386 0.0129921 -0.287008 0.0909449 -0.0401575 0.0129921 -0.28937 0.092126 -0.0366142 0.011811 -0.291732 0.0944882 -0.0330709 0.00944882 -0.295276 0.0944882 -0.0318898 0.0106299 -0.297638 0.0933071 -0.0295276 0.0106299 -0.3 0.0933071 -0.0271654 0.0106299 -0.301181 0.0968504 -0.023622 0.00708661 -0.303543 0.0968504 -0.023622 0.00708661 -0.304724 0.0980315 -0.0224409 0.00590551 -0.307087 0.0992126 -0.0188976 0.00472441 -0.31063 0.0992126 -0.0153543 0.00590551 -0.311811 0.0992126 -0.0141732 0.00354331 -0.315354 0.100394 -0.011811 0.00472441 -0.315354 0.100394 -0.011811 0.00472441 -0.317717 0.0992126 -0.00826772 0.00472441 -0.320079 0.101575 -0.00708661 0.0011811 -0.32126 0.103937 -0.00472441 0.0011811 -0.323622 0.102756 -0.0023622 0.0023622 -0.325984 0.102756 -0.0023622 0 -0.325984 0.103937 0 0 -0.327165 0.105118 -0.0023622 0 -0.323622 0.103937 -0.00472441 0.0011811 -0.32126 0.102756 -0.00708661 0.0011811 -0.32126 0.101575 -0.00590551 0.0023622 -0.320079 0.105118 -0.00826772 0.0011811 -0.320079 0.101575 -0.00826772 0.00354331 -0.317717 0.100394 -0.0106299 0.00354331 -0.316535 0.100394 -0.011811 0.00472441 -0.315354 0.100394 -0.0129921 0.00354331 -0.311811 0.100394 -0.0165354 0.00472441 -0.311811 0.0992126 -0.0177165 0.00472441 -0.309449 0.0992126 -0.0165354 0.00472441 -0.31063 0.100394 -0.0177165 0.00472441 -0.308268 0.0992126 -0.0188976 0.00708661 -0.308268 0.0956693 -0.0212598 0.00944882 -0.307087 0.0968504 -0.0212598 0.00708661 -0.303543 0.0980315 -0.0248031 0.00590551 -0.303543 0.0968504 -0.0248031 0.00708661 -0.301181 0.0968504 -0.0259843 0.00944882 -0.301181 0.0956693 -0.0259843 0.00826772 -0.3 0.0956693 -0.0295276 0.00826772 -0.298819 0.0956693 -0.0271654 0.00826772 -0.301181 0.0956693 -0.0271654 0.0106299 -0.297638 0.0944882 -0.0295276 0.00944882 -0.298819 0.0944882 -0.0283465 0.00944882 -0.297638 0.0956693 -0.0295276 0.00826772 -0.296457 0.0956693 -0.0295276 0.00944882 -0.298819 0.0956693 -0.0283465 0.00826772 -0.298819 0.0956693 -0.0283465 0.00826772 -0.3 0.0956693 -0.0259843 0.00826772 -0.298819 0.0944882 -0.0295276 0.00944882 -0.298819 0.0968504 -0.0283465 0.00826772 -0.3 0.0956693 -0.0271654 0.00944882 -0.301181 0.0944882 -0.0248031 0.00826772 -0.303543 0.0980315 -0.023622 0.00708661 -0.303543 0.0968504 -0.023622 0.00826772 -0.304724 0.0968504 -0.0212598 0.00590551 -0.308268 0.0992126 -0.0188976 0.00472441 -0.307087 0.0992126 -0.0212598 0.00590551 -0.308268 0.0980315 -0.0188976 0.00590551 -0.308268 0.0992126 -0.0177165 0.00472441 -0.31063 0.0992126 -0.0165354 0.00472441 -0.311811 0.100394 -0.0153543 0.00590551 -0.312992 0.0980315 -0.0129921 0.00590551 -0.315354 0.100394 -0.011811 0.00354331 -0.316535 0.101575 -0.0106299 0.0023622 -0.316535 0.101575 -0.011811 0.00354331 -0.317717 0.100394 -0.00708661 0.00354331 -0.320079 0.101575 -0.00708661 0.0011811 -0.322441 0.103937 -0.00472441 0.0011811 -0.323622 0.102756 -0.0023622 0.0023622 -0.325984 0.102756 -0.0011811 0 -0.327165 0.103937 0 0 -0.327165 0.106299 -0.0023622 0 -0.323622 0.103937 -0.0023622 0.0011811 -0.323622 0.102756 -0.00590551 0.0011811 -0.32126 0.101575 -0.00590551 0.0023622 -0.32126 0.103937 -0.00826772 0.0011811 -0.317717 0.101575 -0.0106299 0.00354331 -0.316535 0.100394 -0.011811 0.00354331 -0.314173 0.0992126 -0.0153543 0.00590551 -0.311811 0.100394 -0.0165354 0.00472441 -0.308268 0.0980315 -0.0188976 0.00708661 -0.309449 0.0968504 -0.0212598 0.00826772 -0.304724 0.0968504 -0.0212598 0.00708661 -0.305906 0.0980315 -0.0248031 0.00708661 -0.301181 0.0956693 -0.0259843 0.00826772 -0.3 0.0956693 -0.0295276 0.0106299 -0.297638 0.0944882 -0.0318898 0.0106299 -0.294094 0.0933071 -0.0354331 0.0106299 -0.290551 0.092126 -0.0377953 0.011811 -0.28937 0.0933071 -0.0377953 0.011811 -0.288189 0.092126 -0.0413386 0.0141732 -0.284646 0.0897638 -0.0425197 0.0141732 -0.283465 0.0909449 -0.0472441 0.0141732 -0.277559 0.0885827 -0.0507874 0.0165354 -0.276378 0.0885827 -0.0531496 0.0153543 -0.274016 0.0885827 -0.0555118 0.0177165 -0.270472 0.0862205 -0.057874 0.0177165 -0.26811 0.0862205 -0.0614173 0.0188976 -0.263386 0.0850394 -0.0637795 0.0200787 -0.262205 0.0838583 -0.0673228 0.0212598 -0.258661 0.0814961 -0.0708661 0.023622 -0.256299 0.080315 -0.0708661 0.0248031 -0.253937 0.0791339 -0.0779528 0.0259843 -0.248031 0.0779528c-2.75787,0.881102 -2.84764,3.06969 -0.359055,4.77047 5.35512,3.65906 9.93898,6.79252 13.9075,9.50433 3.09449,2.11654 5.86299,4.00866 8.35394,5.71181l6.0378 18.926 10.7008 -3.41102 -6.03661 -18.9272z"/>
   <path id="_288789520" class="fil4 str0" d="M69.3791 41.485c0.227953,-3.00827 0.48189,-6.35315 0.767717,-10.0913 0.366142,-4.79291 0.786614,-10.3287 1.27795,-16.7976 0.227953,-3.00472 2.17087,-4.02047 4.30984,-2.07165l0.193701 0.174803 0.0590551 0.0555118 0.197244 0.178346 0.057874 0.0519685 0.196063 0.178346 0.0566929 0.0507874 0.199606 0.183071 0.0519685 0.0484252 0.20315 0.184252 0.0496063 0.0448819 0.206693 0.187795 0.0472441 0.0425197 0.207874 0.187795 0.046063 0.0437008 0.209055 0.190157 0.0425197 0.0401575 0.212598 0.191339 0.0389764 0.0377953 0.216142 0.196063 0.0401575 0.034252 0.21378 0.196063 0.0389764 0.034252 0.218504 0.199606 0.0354331 0.0318898 0.218504 0.200787 0.0330709 0.0295276 0.223228 0.20315 0.0307087 0.0271654 0.224409 0.205512 0.0283465 0.023622 0.225591 0.207874 0.0283465 0.023622 0.227953 0.207874 0.0248031 0.0224409 0.231496 0.210236 0.0212598 0.0212598 0.233858 0.210236 0.0200787 0.0212598 0.235039 0.211417 0.0188976 0.0188976 0.233858 0.21378 0.0188976 0.0177165 0.237402 0.214961 0.0165354 0.0129921 0.238583 0.218504 0.0141732 0.0129921 0.242126 0.219685 0.011811 0.0106299 0.242126 0.220866 0.0106299 0.0106299 0.244488 0.223228 0.00826772 0.00708661 0.245669 0.223228 0.00826772 0.00826772 0.248031 0.223228 0.00708661 0.00826772 0.24685 0.224409 0.00708661 0.00472441 0.24685 0.227953 0.00590551 0.00354331 0.251575 0.227953 0.0023622 0.0023622 0.251575 0.230315 0.0011811 0.0011811 0.253937 0.230315 0 0 0.253937 0.231496 0.0011811 0.0011811 0.251575 0.230315 0.0023622 0.0011811 0.251575 0.227953 0.00354331 0.00354331 0.250394 0.227953 0.00590551 0.00472441 0.24685 0.226772 0.00826772 0.00472441 0.244488 0.225591 0.00944882 0.00708661 0.245669 0.224409 0.00826772 0.00708661 0.245669 0.224409 0.00944882 0.00708661 0.243307 0.224409 0.011811 0.00826772 0.243307 0.220866 0.0106299 0.011811 0.243307 0.219685 0.0106299 0.0106299 0.242126 0.219685 0.0129921 0.011811 0.242126 0.219685 0.0129921 0.0129921 0.239764 0.218504 0.0165354 0.0129921 0.237402 0.218504 0.0165354 0.0141732 0.237402 0.216142 0.0165354 0.0153543 0.237402 0.214961 0.0177165 0.0165354 0.235039 0.214961 0.0200787 0.0177165 0.232677 0.212598 0.0212598 0.0200787 0.233858 0.211417 0.0200787 0.0188976 0.235039 0.212598 0.0200787 0.0188976 0.232677 0.212598 0.0224409 0.0188976 0.230315 0.211417 0.023622 0.0200787 0.231496 0.210236 0.0212598 0.0212598 0.232677 0.210236 0.0212598 0.0212598 0.232677 0.210236 0.0212598 0.0200787 0.232677 0.211417 0.0212598 0.0200787 0.231496 0.211417 0.0224409 0.0200787 0.231496 0.210236 0.0212598 0.0188976 0.232677 0.211417 0.0224409 0.0200787 0.231496 0.210236 0.0224409 0.0212598 0.231496 0.211417 0.023622 0.0188976 0.231496 0.21378 0.0212598 0.0177165 0.233858 0.212598 0.0188976 0.0200787 0.23622 0.212598 0.0177165 0.0177165 0.237402 0.214961 0.0177165 0.0153543 0.23622 0.216142 0.0165354 0.0153543 0.238583 0.216142 0.0153543 0.0141732 0.239764 0.217323 0.0141732 0.0141732 0.238583 0.216142 0.0153543 0.0153543 0.238583 0.217323 0.0153543 0.0129921 0.238583 0.219685 0.0141732 0.011811 0.242126 0.219685 0.011811 0.0106299 0.244488 0.220866 0.00944882 0.0106299 0.244488 0.222047 0.00944882 0.00826772 0.244488 0.223228 0.00944882 0.00826772 0.245669 0.225591 0.00708661 0.00472441 0.249213 0.225591 0.00472441 0.00590551 0.249213 0.225591 0.00472441 0.00590551 0.250394 0.226772 0.00354331 0.00354331 0.250394 0.227953 0.00354331 0.0023622 0.251575 0.229134 0.0023622 0.0011811 0.253937 0.231496 0 0 0.252756 0.231496 0.0011811 0 0.251575 0.230315 0.0023622 0.00354331 0.250394 0.227953 0.00354331 0.00354331 0.251575 0.226772 0.00472441 0.00472441 0.249213 0.225591 0.00590551 0.00708661 0.24685 0.223228 0.00826772 0.00826772 0.244488 0.223228 0.00944882 0.00944882 0.244488 0.222047 0.0106299 0.00944882 0.243307 0.222047 0.0129921 0.00944882 0.240945 0.220866 0.0153543 0.0129921 0.237402 0.216142 0.0165354 0.0153543 0.237402 0.216142 0.0177165 0.0153543 0.23622 0.21378 0.0188976 0.0188976 0.233858 0.212598 0.0224409 0.0200787 0.230315 0.211417 0.0224409 0.0224409 0.231496 0.207874 0.023622 0.0212598 0.230315 0.210236 0.0259843 0.023622 0.226772 0.205512 0.0283465 0.0259843 0.224409 0.205512 0.0318898 0.0271654 0.219685 0.20315 0.034252 0.0295276 0.220866 0.200787 0.034252 0.0318898 0.218504 0.198425 0.0354331 0.034252 0.217323 0.196063 0.0401575 0.0366142 0.212598 0.193701 0.0425197 0.0377953 0.211417 0.19252 0.0437008 0.0389764 0.209055 0.191339 0.0448819 0.0425197 0.209055 0.187795 0.046063 0.0437008 0.205512 0.187795 0.0507874 0.0448819 0.20315 0.185433 0.0531496 0.0472441 0.199606 0.180709 0.0555118 0.0519685 0.199606 0.178346 0.0555118 0.0531496 0.196063 0.178346 0.057874 0.0555118 0.194882 0.174803c2.14134,1.94764 1.30984,3.97677 -1.66063,4.48583 -6.39331,1.09724 -11.8665,2.03386 -16.6004,2.84764 -3.69803,0.633071 -7.00157,1.19882 -9.97795,1.71024l-13.3713 14.6906 -8.30669 -7.56142 13.3724 -14.6906z"/>
   <path id="_288789208" class="fil5 str0" d="M42.6118 70.8756c-2.9752,0.510236 -6.2811,1.07717 -9.97677,1.7126 -4.73622,0.812598 -10.2106,1.75039 -16.6028,2.84528 -2.97047,0.510236 -3.79961,2.53819 -1.65945,4.48701l0.193701 0.174803 0.057874 0.0555118 0.197244 0.177165 0.0566929 0.0507874 0.199606 0.18189 0.0543307 0.0496063 0.200787 0.183071 0.0507874 0.0472441 0.204331 0.185433 0.0484252 0.0448819 0.205512 0.186614 0.0484252 0.0437008 0.206693 0.187795 0.046063 0.0437008 0.211417 0.190157 0.0425197 0.0389764 0.212598 0.19252 0.0389764 0.0389764 0.216142 0.193701 0.0377953 0.0366142 0.214961 0.196063 0.0389764 0.0330709 0.217323 0.199606 0.034252 0.0318898 0.223228 0.200787 0.0318898 0.0295276 0.223228 0.201969 0.0283465 0.0271654 0.225591 0.206693 0.0307087 0.023622 0.223228 0.206693 0.0283465 0.0248031 0.227953 0.207874 0.0248031 0.023622 0.230315 0.207874 0.0224409 0.0224409 0.233858 0.211417 0.0212598 0.0188976 0.232677 0.21378 0.0200787 0.0165354 0.233858 0.21378 0.0188976 0.0165354 0.23622 0.217323 0.0165354 0.0141732 0.239764 0.217323 0.0141732 0.0129921 0.240945 0.219685 0.0129921 0.011811 0.242126 0.220866 0.0106299 0.00944882 0.244488 0.220866 0.00826772 0.0106299 0.248031 0.222047 0.00708661 0.00590551 0.24685 0.226772 0.00708661 0.00472441 0.248031 0.226772 0.00354331 0.00472441 0.250394 0.227953 0.00354331 0.00354331 0.251575 0.227953 0.0023622 0.00354331 0.252756 0.229134 0.0023622 0.0023622 0.252756 0.230315 0 0 0.252756 0.227953 0.0011811 0.00354331 0.252756 0.227953 0.0023622 0.00354331 0.252756 0.227953 0.0023622 0.00354331 0.251575 0.227953 0.00354331 0.00472441 0.249213 0.226772 0.00472441 0.00472441 0.248031 0.226772 0.00708661 0.00472441 0.24685 0.225591 0.00826772 0.00708661 0.245669 0.223228 0.00944882 0.00944882 0.244488 0.220866 0.0106299 0.0106299 0.242126 0.220866 0.011811 0.0106299 0.243307 0.220866 0.0106299 0.0106299 0.243307 0.220866 0.0129921 0.011811 0.240945 0.219685 0.0141732 0.011811 0.238583 0.217323 0.0165354 0.0141732 0.23622 0.217323 0.0177165 0.0141732 0.237402 0.216142 0.0153543 0.0165354 0.238583 0.214961 0.0165354 0.0177165 0.23622 0.21378 0.0200787 0.0177165 0.232677 0.21378 0.0212598 0.0177165 0.232677 0.212598 0.0212598 0.0177165 0.233858 0.212598 0.0212598 0.0200787 0.232677 0.212598 0.023622 0.0200787 0.230315 0.210236 0.0224409 0.0200787 0.231496 0.211417 0.0212598 0.0188976 0.232677 0.211417 0.0212598 0.0200787 0.231496 0.211417 0.0224409 0.0200787 0.231496 0.210236 0.023622 0.0200787 0.230315 0.211417 0.0224409 0.0200787 0.232677 0.211417 0.0200787 0.0200787 0.233858 0.210236 0.0212598 0.0200787 0.231496 0.211417 0.0224409 0.0200787 0.231496 0.211417 0.0224409 0.0200787 0.232677 0.211417 0.0200787 0.0200787 0.235039 0.212598 0.0200787 0.0188976 0.233858 0.212598 0.0200787 0.0177165 0.233858 0.214961 0.0200787 0.0141732 0.235039 0.216142 0.0177165 0.0153543 0.237402 0.217323 0.0153543 0.0141732 0.239764 0.217323 0.0141732 0.0141732 0.240945 0.217323 0.0141732 0.0141732 0.238583 0.218504 0.0153543 0.0129921 0.240945 0.218504 0.011811 0.0106299 0.242126 0.220866 0.011811 0.00944882 0.244488 0.223228 0.00944882 0.00826772 0.244488 0.224409 0.00826772 0.00708661 0.245669 0.223228 0.00826772 0.00826772 0.24685 0.224409 0.00708661 0.00708661 0.248031 0.224409 0.00472441 0.00708661 0.249213 0.224409 0.00472441 0.00354331 0.249213 0.229134 0.00590551 0.0023622 0.250394 0.229134 0.0023622 0.0023622 0.252756 0.229134 0.0011811 0.0023622 0.255118 0.231496 0 0 0.252756 0.230315 0.0011811 0.0011811 0.251575 0.230315 0.0023622 0.0011811 0.251575 0.226772 0.00354331 0.00590551 0.250394 0.225591 0.00472441 0.00472441 0.248031 0.226772 0.00826772 0.00708661 0.245669 0.224409 0.00826772 0.00590551 0.245669 0.224409 0.00944882 0.00826772 0.243307 0.223228 0.011811 0.00944882 0.242126 0.222047 0.0129921 0.0106299 0.238583 0.218504 0.0153543 0.0129921 0.238583 0.217323 0.0165354 0.0153543 0.238583 0.214961 0.0165354 0.0177165 0.237402 0.21378 0.0188976 0.0188976 0.233858 0.211417 0.0212598 0.0188976 0.231496 0.212598 0.0224409 0.0200787 0.230315 0.211417 0.0248031 0.0200787 0.230315 0.209055 0.0259843 0.0248031 0.226772 0.205512 0.0295276 0.0259843 0.223228 0.204331 0.0318898 0.0283465 0.220866 0.20315 0.0330709 0.0295276 0.220866 0.200787 0.034252 0.0318898 0.218504 0.199606 0.0377953 0.0318898 0.216142 0.197244 0.0377953 0.034252 0.214961 0.197244 0.0401575 0.0366142 0.212598 0.193701 0.0437008 0.0377953 0.209055 0.191339 0.046063 0.0413386 0.206693 0.188976 0.0496063 0.0437008 0.204331 0.186614 0.0496063 0.046063 0.20315 0.185433 0.0519685 0.0472441 0.200787 0.18189 0.0543307 0.0507874 0.198425 0.179528 0.057874 0.0531496 0.196063 0.177165 0.0590551 0.0555118 0.19252 0.174803c2.14134,1.94882 4.08425,0.93189 4.31102,-2.07283 0.49252,-6.46772 0.912992,-12.0047 1.27795,-16.7976 0.285827,-3.73819 0.539764,-7.08189 0.768898,-10.0902l13.3724 -14.6917 -8.30669 -7.56142 -13.3713 14.6906z"/>
   <g>
    <path id="_288788752" class="fil6" d="M11.9882 66.2846c-2.65512,2.20984 -7.90276,7.03819 -6.7122,10.8461 1.65709,5.28661 14.2996,5.38465 18.7642,5.25472 6.23622,-0.177165 12.4736,-1.01575 18.6012,-2.16142 7.42323,-1.38661 14.7543,-3.27165 21.9579,-5.52638 7.20354,-2.25354 14.2996,-4.8874 21.189,-7.97835 5.68346,-2.55354 11.289,-5.42244 16.513,-8.83228 3.74173,-2.43898 14.0728,-9.72992 12.4193,-15.0177 -1.13858,-3.63189 -7.64528,-4.66063 -10.8437,-4.99961l-0.102756 -0.0129921 -2.54173 -2.31142 0.908268 0.057874c4.60394,0.301181 12.9508,1.41732 14.5854,6.64016 2.10118,6.70866 -8.51575,14.302 -13.2744,17.4059 -5.31732,3.46772 -11.0173,6.38976 -16.8024,8.98819 -6.96496,3.12402 -14.1378,5.7874 -21.4228,8.06575 -7.2815,2.28071 -14.6941,4.18465 -22.1976,5.5878 -6.23504,1.16457 -12.5846,2.01378 -18.9295,2.19567 -5.67638,0.162992 -18.7287,-0.0188976 -20.8299,-6.72874 -1.69016,-5.40354 5.0126,-11.315 8.81929,-14.2559l0.694488 -0.533858 -0.711024 3.24685 -0.0838583 0.069685z"/>
   </g>
   <path id="_288789448" class="fil6" d="M11.785 66.0402c-3.74055,3.1122 -7.94646,7.56142 -6.8126,11.185 1.73976,5.55709 14.6528,5.60669 19.076,5.47913 6.22441,-0.178346 12.5374,-1.0252 18.6531,-2.16732 7.42441,-1.3878 14.785,-3.27992 21.9921,-5.53583 7.20709,-2.25591 14.3327,-4.89921 21.2232,-7.99252 5.67638,-2.54764 11.3445,-5.45197 16.5591,-8.85472 3.70748,-2.41772 14.2866,-9.82205 12.548,-15.378 -1.07598,-3.43465 -6.5315,-4.73622 -11.113,-5.22283l-0.0448819 -0.0401575 -0.0389764 -0.0354331 -0.218504 -0.199606 -0.0377953 -0.034252 -0.219685 -0.200787 -0.0354331 -0.0318898 -0.223228 -0.201969 -0.0318898 -0.0307087 -0.225591 -0.204331 -0.0307087 -0.0283465 -0.226772 -0.206693 -0.0295276 -0.0259843 -0.227953 -0.209055 -0.0271654 -0.023622 -0.173622 -0.158268c5.36457,0.349606 12.8126,1.65591 14.3031,6.41575 2.04803,6.54331 -8.68819,14.1366 -13.1457,17.0445 -5.27953,3.44409 -11.0126,6.38386 -16.7598,8.96339 -6.94252,3.11693 -14.1236,5.7815 -21.385,8.05512 -7.2626,2.27244 -14.6799,4.17874 -22.161,5.57598 -6.19134,1.15748 -12.5787,2.01142 -18.8799,2.19331 -5.3185,0.152362 -18.4689,0.0366142 -20.5169,-6.50669 -1.54843,-4.94528 4.29685,-10.5024 8.71063,-13.9098l-0.0330709 0.148819 -0.00590551 0.0283465 -0.0673228 0.309449 -0.00708661 0.0307087 -0.0673228 0.308268 -0.00708661 0.0330709 -0.0661417 0.304724 -0.00826772 0.0354331 -0.0661417 0.302362 -0.00826772 0.0377953 -0.0649606 0.3 -0.00944882 0.0413386 -0.0649606 0.296457 -0.00826772 0.0437008 -0.0153543 0.0661417z"/>
   <g>
    <path id="_288788944" class="fil6" d="M78.8244 15.0579c-0.615354,-3.49724 -2.22756,-10.402 -6.23622,-11.2996 -5.61732,-1.25906 -12.0555,9.68976 -14.2559,13.7681 -2.97047,5.50394 -5.37047,11.3409 -7.44803,17.2335 -2.5122,7.13268 -4.55079,14.4343 -6.19961,21.8126 -1.65236,7.37717 -2.92323,14.85 -3.69094,22.3736 -0.633071,6.21496 -0.949606,12.5197 -0.61063,18.7642 0.251575,4.62874 1.40787,17.2736 7.02402,18.5327 3.99685,0.892913 8.38819,-4.62992 10.428,-7.51417l0.0614173 -0.0874016 1.48583 -0.47126 0.824409 -0.226772 -0.477165 0.709843c-2.49567,3.71929 -7.53189,10.2165 -12.6531,9.06732 -6.66378,-1.49173 -7.90748,-14.4189 -8.20866,-19.9299 -0.343701,-6.32126 -0.023622,-12.7039 0.618898,-18.9992 0.773622,-7.5815 2.05276,-15.1157 3.71811,-22.5508 1.66417,-7.43622 3.71693,-14.7957 6.25039,-21.9839 2.10236,-5.96693 4.53661,-11.876 7.5437,-17.4496 2.61969,-4.85433 9.25748,-16.0193 15.9201,-14.5264 5.13189,1.14803 6.90945,9.18543 7.5815,13.6287l0.134646 0.88937 -1.79173 -1.63346 -0.0188976 -0.10748z"/>
   </g>
   <path id="_288897176" class="fil6" d="M79.1386 15.0024c-0.814961,-4.63346 -2.5937,-10.6843 -6.48189,-11.5547 -5.8878,-1.31811 -12.4169,9.87402 -14.6043,13.9287 -2.96457,5.49331 -5.39409,11.3965 -7.46811,17.2795 -2.51339,7.13386 -4.55906,14.4661 -6.21142,21.8469 -1.65236,7.38071 -2.92795,14.8854 -3.69567,22.4102 -0.633071,6.20551 -0.951969,12.5811 -0.612992,18.8138 0.250394,4.60039 1.38543,17.5075 7.27323,18.8256 3.90945,0.875197 8.12008,-3.91181 10.7563,-7.63937l0.0366142 -0.011811 0.0472441 -0.0153543 0.284646 -0.0897638 0.0448819 -0.0153543 0.287008 -0.0909449 0.0425197 -0.0141732 0.28937 -0.092126 0.0401575 -0.0129921 0.291732 -0.0933071 0.00708661 -0.0023622c-2.74488,4.09016 -7.56378,10.0004 -12.3201,8.93622 -6.49252,-1.45394 -7.67835,-14.4992 -7.95827,-19.6358 -0.34252,-6.27992 -0.0212598,-12.7004 0.615354,-18.9508 0.77126,-7.56024 2.05276,-15.0992 3.7122,-22.5142 1.65945,-7.41378 3.71457,-14.7803 6.24094,-21.9472 2.08819,-5.92559 4.53661,-11.8701 7.52362,-17.4047 2.44252,-4.52717 9.07677,-15.822 15.5705,-14.3681 4.71378,1.05472 6.5752,8.32323 7.33819,13.3689l-0.204331 -0.186614 -0.0271654 -0.0248031 -0.227953 -0.207874 -0.0295276 -0.0271654 -0.226772 -0.206693 -0.0307087 -0.0271654 -0.225591 -0.205512 -0.0330709 -0.0295276 -0.0437008 -0.0413386z"/>
   <g>
    <path id="_288897128" class="fil6" d="M90.2197 98.4c3.00354,1.05709 9.2752,2.92795 11.7555,0.227953 3.60472,-3.91535 -2.61024,-14.8677 -4.86378,-18.5244 -3.26457,-5.29724 -7.10197,-10.2697 -11.1461,-14.9929 -4.90394,-5.72362 -10.1941,-11.1236 -15.7394,-16.226 -5.54882,-5.10354 -11.3657,-9.92598 -17.478,-14.3386 -5.04213,-3.6378 -10.3157,-7.04882 -15.8657,-9.86339 -3.8315,-1.94291 -15.2622,-7.2248 -18.8669,-3.30827 -1.38898,1.51181 -1.15157,4.14921 -0.766535,6.00236 0.414567,1.97835 1.14449,3.92835 1.97598,5.76732l0.0437008 0.0944882 -0.727559 3.33425 -0.191339 0.858661 -0.402756 -0.783071c-2.28189,-4.43858 -5.87953,-12.7807 -1.90984,-17.0953 4.89685,-5.32087 16.8472,0.0885827 22.0594,2.73189 5.6752,2.87717 11.0693,6.36024 16.2248,10.0807 6.19843,4.4752 12.1004,9.36378 17.7248,14.5394 5.62441,5.17559 10.9866,10.65 15.9614,16.4563 4.13504,4.82835 8.05512,9.91417 11.3941,15.3319 3.06496,4.97362 9.44882,16.435 4.55433,21.7559 -3.95433,4.29685 -12.5114,1.44449 -17.1154,-0.45l-0.807874 -0.33189 4.08543 -1.30157 0.101575 0.034252z"/>
   </g>
   <path id="_288896480" class="fil6" d="M90.1146 98.7c4.44921,1.56496 9.7748,2.66575 12.0957,0.144094 3.79724,-4.12677 -2.60079,-15.2941 -4.82717,-18.9071 -3.25866,-5.2878 -7.13858,-10.3193 -11.1768,-15.0331 -4.9063,-5.72717 -10.2165,-11.1484 -15.7654,-16.2531 -5.54882,-5.10591 -11.3917,-9.94843 -17.5075,-14.3622 -5.0315,-3.63307 -10.3677,-7.08071 -15.9083,-9.89055 -3.78543,-1.91811 -15.4453,-7.36654 -19.2425,-3.23976 -1.47756,1.60512 -1.25433,4.31929 -0.843307,6.28346 0.401575,1.92165 1.12559,3.90709 1.99606,5.83346l-0.0188976 0.0874016 -0.011811 0.0519685 -0.0625984 0.28937 -0.0106299 0.0484252 -0.0637795 0.291732 -0.00944882 0.046063 -0.0649606 0.294094 -0.00944882 0.0437008 -0.0649606 0.297638 -0.00826772 0.0401575 -0.0661417 0.3 -0.00826772 0.0389764 -0.0661417 0.301181 -0.00708661 0.0354331 -0.0673228 0.305906 -0.00708661 0.0330709 -0.0661417 0.307087 -0.00708661 0.0307087 -0.0673228 0.309449 -0.00708661 0.0283465 -0.0106299 0.0484252c-2.6752,-5.20276 -5.57717,-12.802 -1.95827,-16.7362 4.77874,-5.19213 16.7776,0.314173 21.6815,2.80039 5.63622,2.85709 11.0622,6.36024 16.1811,10.0559 6.18071,4.46102 12.0874,9.35551 17.6953,14.5157 5.60906,5.16024 10.976,10.6394 15.9343,16.428 4.10787,4.79528 8.05039,9.91299 11.3657,15.2917 2.88425,4.68071 9.3685,16.1811 4.58976,21.3744 -3.6,3.91299 -11.3539,1.69488 -16.7575,-0.527953l0.285827 -0.092126 0.0259843 -0.00826772 0.303543 -0.0968504 0.0283465 -0.00826772 0.301181 -0.0968504 0.0307087 -0.00944882 0.298819 -0.0956693 0.0330709 -0.0106299 0.296457 -0.0944882 0.0354331 -0.0106299 0.295276 -0.0944882 0.0366142 -0.011811 0.292913 -0.0933071 0.0389764 -0.0129921 0.290551 -0.092126 0.0413386 -0.0129921 0.288189 -0.092126 0.0448819 -0.0141732 0.184252 -0.0590551z"/>
  </g>
 </g>
</svg>