<svg width="240" height="42" viewBox="0 0 240 42" fill="none" xmlns="http://www.w3.org/2000/svg">
<path d="M19.4387 9.54136L17.9304 15.48H34.3525L31.8561 25.0183H15.434L13.5194 32.4585H34.6419L32.1455 41.9968H0L10.9091 0H43.0576L40.5612 9.53827H19.4387V9.54136Z" fill="#B6B9C5"/>
<path d="M67.831 21.0016L71.2539 42H60.2279L57.5591 25.8001H55.0073L43.9258 42H32.8997L47.2318 21.0016L43.8088 0.00316827H54.8349L57.4452 16.2618H60.0555L71.0815 0.00316827H82.1076L67.8341 21.0016H67.831Z" fill="#B6B9C5"/>
<path d="M92.8412 9.54136L91.3329 15.48H107.755L105.259 25.0183H88.8365L86.9219 32.4585H108.044L105.548 41.9968H73.4025L84.3116 0H116.46L113.964 9.53827H92.8412V9.54136Z" fill="#B6B9C5"/>
<path d="M156.96 0.00316827L146.109 42H132.297L126.147 18.6626L120.111 42H109.085L119.994 0.00316827H134.154L140.014 23.0409L145.992 0.00316827H156.96Z" fill="#B6B9C5"/>
<path d="M189.398 0.00308341C190.404 0.00308341 191.294 0.114319 192.066 0.333696C192.839 0.553074 193.479 0.89295 193.981 1.35333C194.483 1.81372 194.812 2.40388 194.969 3.1238C195.123 3.84373 195.065 4.72433 194.794 5.76251C194.483 7.0417 194.156 8.31161 193.806 9.57226C193.458 10.8329 193.128 12.1028 192.821 13.382L188.874 28.621C188.563 29.9002 188.237 31.1701 187.889 32.4307C187.541 33.6914 187.212 34.9613 186.901 36.2405C186.359 38.2798 185.325 39.7505 183.798 40.6497C182.269 41.5488 180.499 41.9999 178.489 41.9999H157.077C156.07 41.9999 155.171 41.8918 154.377 41.6693C153.583 41.4499 152.946 41.1101 152.462 40.6497C151.979 40.1893 151.65 39.5899 151.477 38.8483C151.302 38.1098 151.351 37.2385 151.622 36.2374C151.97 34.9582 152.309 33.6883 152.638 32.4277C152.967 31.167 153.284 29.8971 153.595 28.6179L157.6 13.3789C157.908 12.0997 158.237 10.8298 158.588 9.56917C158.936 8.30853 159.265 7.0386 159.573 5.75942C160.115 3.72014 161.14 2.24939 162.648 1.35025C164.156 0.451112 165.917 0 167.927 0H189.398V0.00308341ZM177.211 32.4616C178.218 28.621 179.203 24.8112 180.169 21.0324C181.136 17.2535 182.121 13.4222 183.127 9.54445H169.202C168.195 13.4253 167.21 17.2535 166.243 21.0324C165.277 24.8112 164.289 28.621 163.285 32.4616H177.211Z" fill="#B6B9C5"/>
<path d="M239.997 32.4585L237.5 41.9968H205.355L216.264 0H227.29L218.877 32.4585H240H239.997Z" fill="#B6B9C5"/>
<path d="M200.307 0.00316827H211.333L200.424 42H189.398L200.307 0.00316827Z" fill="#B6B9C5"/>
</svg>
