<svg width="65" height="72" viewBox="0 0 65 72" fill="none" xmlns="http://www.w3.org/2000/svg">
<path d="M61.7153 27.5598C61.2614 26.6527 60.7621 25.7631 60.2142 24.8948L46.8264 3.66726C46.5183 3.17787 46.1585 2.73498 45.7624 2.33325C44.3698 0.813238 42.4225 -0.000891442 40.4364 0.00444461C38.8754 -0.0481536 37.3348 0.366534 35.9862 1.22488L13.7299 15.3868C4.69215 21.1375 -0.181519 31.0344 0.00517125 41.0669C0.0894093 46.3145 1.5723 51.6056 4.58514 56.3638C4.95093 56.9417 5.3357 57.4989 5.72957 58.047C5.83961 58.1994 5.95344 58.3473 6.06576 58.4975C6.34807 58.8756 6.63569 59.2476 6.93091 59.6105C7.08724 59.8033 7.24433 59.9946 7.4037 60.1829C7.67615 60.5031 7.95543 60.8156 8.23774 61.1236C8.40621 61.3073 8.57014 61.4956 8.74241 61.6747C9.15145 62.1016 9.56961 62.5163 9.99763 62.918C10.2321 63.1383 10.4742 63.3465 10.7148 63.5591C10.9432 63.7611 11.1709 63.9631 11.4039 64.1583C11.674 64.3847 11.948 64.605 12.225 64.8223C12.4314 64.9839 12.6394 65.1424 12.8488 65.2987C13.1471 65.522 13.4446 65.7439 13.7489 65.9565C13.9075 66.0671 14.0699 66.17 14.23 66.2782C14.8895 66.7219 15.5627 67.1404 16.2487 67.5337C16.3808 67.6092 16.5105 67.6892 16.6426 67.7624C16.9977 67.9598 17.3582 68.1459 17.7202 68.3296C17.8986 68.4203 18.0777 68.511 18.2575 68.5979C18.6203 68.7747 18.9853 68.9455 19.3541 69.1094C19.5196 69.1826 19.6865 69.2512 19.8535 69.3213C21.0852 69.8427 22.3434 70.2894 23.6245 70.6591C23.8309 70.7186 24.0366 70.7803 24.2437 70.836C24.6019 70.932 24.9617 71.0212 25.3229 71.1058C25.5673 71.163 25.8124 71.2156 26.0575 71.2674C26.4013 71.3399 26.7451 71.4123 27.0911 71.474C27.4099 71.5312 27.7301 71.5762 28.0504 71.6234C28.5065 71.6905 28.9626 71.7507 29.421 71.7995C29.8179 71.8422 30.2148 71.8826 30.614 71.9108C30.8621 71.9283 31.111 71.939 31.3592 71.9505C31.7705 71.971 32.1818 71.984 32.5939 71.9886C32.7176 71.9901 32.8406 72 32.9643 72C33.044 72 33.1229 71.9924 33.2026 71.9916C34.6384 71.9832 36.0765 71.8811 37.5109 71.6867C37.5503 71.6814 37.589 71.6753 37.6285 71.6699C42.2335 71.0288 46.7793 69.4265 50.9631 66.7752C64.2416 58.3595 68.7184 41.2956 61.716 27.5598H61.7153ZM43.5062 45.6704C43.5062 51.3236 39.8536 56.3814 27.2649 56.3814H25.4876C20.3043 56.3814 15.3676 55.7868 10.6776 54.7943V46.4639C16.0096 47.6539 21.9822 48.4474 27.0183 48.4474C34.0776 48.4474 34.6202 46.8108 34.6202 45.5713C34.6202 43.241 32.5469 42.8934 26.8202 42.7447C21.7849 42.5961 10.8256 42.2485 10.8256 32.5795V31.9354C10.8256 26.2327 14.4789 21.1749 27.0175 21.1749H28.7949C33.2876 21.1749 37.6315 21.7702 41.6795 22.8115V30.9932C36.8908 29.8528 32.2016 29.1584 27.3636 29.1584C20.2056 29.1584 19.7116 30.795 19.7116 31.9354C19.7116 34.3153 21.8835 34.6629 27.4615 34.8115C32.1515 34.9106 43.5054 35.2582 43.5054 45.0263V45.6712L43.5062 45.6704ZM53.7248 55.3896H44.8388V22.1666H53.7248V55.3896Z" fill="#B6B9C5"/>
</svg>
