<svg width="119" height="72" viewBox="0 0 119 72" fill="none" xmlns="http://www.w3.org/2000/svg">
<path d="M16.9336 60.8092C29.7848 60.8092 33.5143 55.6597 33.5143 49.9038V49.2477C33.5143 39.3009 21.9233 38.9473 17.1349 38.8465C11.4393 38.6945 9.22232 38.3408 9.22232 35.9181C9.22232 34.7564 9.72547 33.0906 17.0343 33.0906C21.9729 33.0906 26.7613 33.7978 31.6488 34.958V26.6274C27.5168 25.5665 23.0813 24.9616 18.4957 24.9616H16.6813C3.88121 24.9616 0.151719 30.111 0.151719 35.9181V36.5742C0.151719 46.4202 11.3402 46.7738 16.48 46.9258C22.3258 47.0778 24.4422 47.4299 24.4422 49.803C24.4422 51.0655 23.8879 52.7314 16.6813 52.7314C11.5414 52.7314 5.44329 51.9233 0 50.7119V59.1945C4.78842 60.2043 9.82765 60.8107 15.1192 60.8107H16.9336V60.8092Z" fill="#E10818"/>
<path d="M49.1382 25.9697H40.0676V59.7994H49.1382V25.9697Z" fill="#E10818"/>
<path d="M114.315 25.0888L100.571 3.35096C98.4452 -0.0116936 94.002 -1.01056 90.6456 1.12056L67.795 15.6243C54.0459 24.3505 49.9603 42.5907 58.6702 56.3654C68.5892 72.0526 89.3235 76.7135 104.98 66.776C119.048 57.8482 123.226 39.1846 114.315 25.0919V25.0888ZM90.8748 54.2405H84.5785V40.2238L78.0019 49.4401H74.7833L68.2083 40.2238V54.2405H61.912V30.7625H68.2083L76.3934 42.7814L84.5785 30.7625H90.8748V54.2405ZM106.336 45.5144V54.2405H100.04V45.5144L90.8763 32.163V30.7609H97.0674L103.189 40.503L109.344 30.7609H115.5V32.163L106.336 45.5144Z" fill="#E10818"/>
<path d="M44.6579 23.3718C47.7619 23.3718 50.2777 20.8513 50.2777 17.7415C50.2777 14.6317 47.7619 12.1112 44.6579 12.1112C41.5539 12.1112 39.0381 14.6317 39.0381 17.7415C39.0381 20.8513 41.5539 23.3718 44.6579 23.3718Z" fill="#E10818"/>
</svg>
