<svg width="240" height="37" viewBox="0 0 240 37" fill="none" xmlns="http://www.w3.org/2000/svg">
<path d="M30.8105 8.79276C26.9777 7.92869 22.994 7.52225 18.8086 7.52225C15.0774 7.52225 12.556 7.77667 11.2953 8.23431C10.0346 8.69195 9.42967 9.60723 9.42967 10.9785C9.63132 13.4172 10.5396 13.8748 19.1627 14.6877C28.9957 15.5517 33.2319 18.7024 33.2319 25.4614C33.2319 29.7818 31.7695 32.7804 28.8957 34.4574C26.0218 36.1343 21.0791 36.9984 14.1708 36.9984C8.47231 36.9984 3.88362 36.5408 0.504859 35.5759L2.06727 28.156C5.69849 29.0201 9.68219 29.4777 14.0184 29.4777C17.8004 29.4777 20.3726 29.2745 21.6333 28.8169C22.9448 28.3593 23.6005 27.3944 23.6005 26.0215C23.4988 23.5812 22.5415 22.8708 13.3134 22.0067C4.08533 21.245 0 18.4992 0 12.1467C0 3.4563 5.79852 0 18.861 0C24.4595 0 28.9465 0.45764 32.2252 1.42252L30.8137 8.79116L30.8105 8.79276Z" fill="#B6B9C5"/>
<path d="M36.2597 0.864075H45.0337V36.2879H36.2597V0.864075Z" fill="#B6B9C5"/>
<path d="M57.9438 36.2879H49.4207V0.864075H61.4226C67.3228 8.23271 73.3753 16.467 79.5771 25.5126V0.864075H88.3018V36.2879H76.754C71.0047 27.444 64.7522 18.856 57.9438 10.5721V36.2879Z" fill="#B6B9C5"/>
<path d="M111.25 8.02949V36.2863H102.374V8.02949H90.8296V0.864075H125.319L121.072 8.02949H111.25Z" fill="#B6B9C5"/>
<path d="M159.664 3.71072C163.344 6.40375 165.01 11.0794 165.01 18.1952C165.01 25.311 163.295 30.241 159.664 33.0861C156.033 35.9327 151.192 37 144.082 37C136.972 37 132.08 35.9327 128.448 33.0861C124.817 30.241 123.102 25.3606 123.102 18.1952C123.102 11.0298 124.766 6.40375 128.448 3.71072C132.13 1.01769 136.821 0 144.082 0C151.342 0 155.983 1.01609 159.664 3.71072ZM153.411 27.5976C155.126 26.0215 155.529 23.2276 155.529 18.2976C155.529 13.3676 155.228 10.9289 153.36 9.35281C152.452 8.53994 151.344 8.03109 149.982 7.82788C148.67 7.62466 146.703 7.52385 144.082 7.52385C142.316 7.52385 140.904 7.57506 139.845 7.67586C137.677 7.82788 135.66 8.33672 134.701 9.3016C133.088 10.8265 132.634 13.4188 132.634 18.2976C132.634 23.4308 132.936 25.871 134.752 27.548C135.66 28.4121 136.768 28.9209 138.131 29.1737C139.493 29.4281 141.509 29.529 144.082 29.529C148.973 29.6314 151.697 29.1225 153.411 27.5976Z" fill="#B6B9C5"/>
<path d="M176.005 0.864075V29.0697H191.683V36.2863H167.23V0.864075H176.005Z" fill="#B6B9C5"/>
<path d="M194.968 0.864075H203.742V36.2879H194.968V0.864075Z" fill="#B6B9C5"/>
<path d="M228.203 8.02949V36.2863H219.327V8.02949H207.027V0.864075H240V8.02949H228.201H228.203Z" fill="#B6B9C5"/>
</svg>
