<svg width="240" height="38" viewBox="0 0 240 38" fill="none" xmlns="http://www.w3.org/2000/svg">
<path d="M30.8105 9.72476C26.9777 8.86737 22.994 8.46408 18.8086 8.46408C15.0774 8.46408 12.556 8.71653 11.2953 9.17063C10.0346 9.62473 9.42967 10.5329 9.42967 11.8936C9.63132 14.3134 10.5396 14.7675 19.1627 15.5741C28.9957 16.4315 33.2319 19.5578 33.2319 26.2645C33.2319 30.5515 31.7695 33.5269 28.8957 35.1909C26.0218 36.8549 21.0791 37.7123 14.1708 37.7123C8.47231 37.7123 3.88362 37.2582 0.504859 36.3007L2.06727 28.9383C5.69849 29.7957 9.68219 30.2498 14.0184 30.2498C17.8004 30.2498 20.3726 30.0481 21.6333 29.594C22.9448 29.1399 23.6005 28.1825 23.6005 26.8202C23.4988 24.3989 22.5415 23.6939 13.3134 22.8365C4.08533 22.0807 0 19.3561 0 13.0527C0 4.42957 5.79852 1 18.861 1C24.4595 1 28.9465 1.4541 32.2252 2.41152L30.8137 9.72317L30.8105 9.72476Z" fill="#014995"/>
<path d="M36.2597 1.85739H45.0337V37.0073H36.2597V1.85739Z" fill="#014995"/>
<path d="M57.9438 37.0073H49.4207V1.85739H61.4226C67.3228 9.16904 73.3753 17.3397 79.5771 26.3153V1.85739H88.3018V37.0073H76.754C71.0047 28.2317 64.7522 19.7102 57.9438 11.4904V37.0073Z" fill="#014995"/>
<path d="M111.25 8.9674V37.0057H102.374V8.9674H90.8296V1.85739H125.319L121.072 8.9674H111.25Z" fill="#014995"/>
<path d="M159.664 4.68202C163.344 7.35423 165.01 11.9937 165.01 19.0545C165.01 26.1152 163.295 31.0071 159.664 33.8302C156.033 36.6548 151.192 37.7139 144.082 37.7139C136.972 37.7139 132.08 36.6548 128.448 33.8302C124.817 31.0071 123.102 26.1645 123.102 19.0545C123.102 11.9445 124.766 7.35423 128.448 4.68202C132.13 2.00982 136.821 1 144.082 1C151.342 1 155.983 2.00823 159.664 4.68202ZM153.411 28.3842C155.126 26.8202 155.529 24.048 155.529 19.1561C155.529 14.2642 155.228 11.8444 153.36 10.2805C152.452 9.47389 151.344 8.96899 149.982 8.76734C148.67 8.56569 146.703 8.46566 144.082 8.46566C142.316 8.46566 140.904 8.51647 139.845 8.6165C137.677 8.76734 135.66 9.27225 134.701 10.2297C133.088 11.7428 132.634 14.315 132.634 19.1561C132.634 24.2496 132.935 26.671 134.752 28.3349C135.66 29.1923 136.768 29.6972 138.131 29.9481C139.493 30.2006 141.509 30.3006 144.082 30.3006C148.973 30.4022 151.697 29.8973 153.411 28.3842Z" fill="#014995"/>
<path d="M176.005 1.85739V29.8449H191.683V37.0057H167.23V1.85739H176.005Z" fill="#014995"/>
<path d="M194.968 1.85739H203.742V37.0073H194.968V1.85739Z" fill="#014995"/>
<path d="M228.203 8.9674V37.0057H219.327V8.9674H207.027V1.85739H240V8.9674H228.201H228.203Z" fill="#014995"/>
</svg>
