<svg width="249" height="72" viewBox="0 0 249 72" fill="none" xmlns="http://www.w3.org/2000/svg">
<path d="M0 60V26.4707C0 23.8183 0.579435 21.3819 1.74829 19.1715C2.90716 16.9513 4.52559 15.2026 6.59357 13.9255C8.66155 12.6484 11.0192 12 13.6767 12H24.2763C27.2035 12 29.7909 12.7073 32.0188 14.1318C34.2466 15.5465 35.9649 17.3934 37.1737 19.6529C38.3826 21.9124 38.982 24.2603 38.982 26.677C38.982 28.2292 38.7122 29.7126 38.1828 31.1371C37.6533 32.5518 36.8441 33.8093 35.7751 34.9095C37.4535 35.9116 38.7322 37.395 39.6413 39.3303C40.5504 41.2755 41 43.368 41 45.6079C41 48.0737 40.4405 50.4118 39.3216 52.6025C38.2027 54.7933 36.5244 56.5813 34.2666 57.9468C32.0088 59.3123 29.2315 60 25.9347 60H0ZM27.4033 46.6689C27.9128 46.1482 28.1725 45.5391 28.1725 44.8514C28.1725 44.1244 27.9128 43.5055 27.4033 43.0045C26.8938 42.5035 26.1445 42.2481 25.1754 42.2481H14.7856V29.7028H23.9866C24.8258 29.7028 25.4652 29.4474 25.9047 28.9464C26.3443 28.4454 26.5641 27.8461 26.5641 27.1682C26.5641 26.4904 26.3343 25.8813 25.8648 25.3508C25.3952 24.8301 24.7758 24.5649 23.9866 24.5649H14.8555C14.2961 24.5649 13.8065 24.7614 13.3869 25.1445C12.9673 25.5375 12.7576 25.9992 12.7576 26.5493V47.4646H25.2354C26.1645 47.4646 26.8838 47.1993 27.4033 46.6787V46.6689Z" fill="#B6B9C5"/>
<path d="M118 60V26.5327C118 23.8796 118.658 21.4428 119.985 19.2319C121.312 17.0113 123.098 15.2524 125.342 13.9554C127.597 12.6485 130.071 12 132.754 12H144.246C146.939 12 149.413 12.6485 151.658 13.9554C153.912 15.2622 155.698 17.0211 157.015 19.2319C158.342 21.4526 159 23.8895 159 26.5327V60H146.261V26.5327C146.261 25.9824 146.062 25.5206 145.673 25.1275C145.283 24.7345 144.805 24.5478 144.246 24.5478H132.754C132.195 24.5478 131.717 24.7443 131.327 25.1275C130.938 25.5206 130.739 25.9824 130.739 26.5327V60H118Z" fill="#B6B9C5"/>
<path d="M177.779 39.6897H189.221C189.78 39.6897 190.25 39.4931 190.65 39.1099C191.039 38.7169 191.239 38.2551 191.239 37.7048V26.5228C191.239 25.9726 191.039 25.5107 190.65 25.1177C190.26 24.7247 189.78 24.538 189.221 24.538H177.779C177.22 24.538 176.74 24.7345 176.35 25.1177C175.961 25.5107 175.761 25.9726 175.761 26.5228V60H163V26.5326C163 23.8796 163.66 21.4428 164.989 19.2319C166.318 17.0113 168.106 15.2524 170.355 13.9554C172.613 12.6485 175.091 12 177.779 12H189.221C191.919 12 194.397 12.6485 196.645 13.9554C198.904 15.2622 200.692 17.0211 202.011 19.2319C203.34 21.4526 204 23.8895 204 26.5326V37.7146C204 40.3677 203.34 42.8045 202.011 45.0154C200.682 47.236 198.894 48.9949 196.645 50.2919C194.387 51.5988 191.909 52.2473 189.221 52.2473H177.779V39.6995V39.6897Z" fill="#B6B9C5"/>
<path d="M247.015 52.7666C245.688 54.9877 243.902 56.7469 241.658 58.0442C239.403 59.3513 236.929 60 234.246 60H222.754C220.061 60 217.587 59.3513 215.342 58.0442C213.088 56.7371 211.302 54.9779 209.985 52.7666C208.658 50.5455 208 48.1081 208 45.4644V26.5356C208 23.8821 208.658 21.4447 209.985 19.2334C211.312 17.0123 213.098 15.2531 215.342 13.9558C217.597 12.6486 220.071 12 222.754 12H234.246C236.939 12 239.413 12.6486 241.658 13.9558C243.902 15.2629 245.698 17.0221 247.015 19.2334C248.342 21.4545 249 23.8919 249 26.5356V45.4644C249 48.1179 248.342 50.5553 247.015 52.7666ZM235.663 25.1204C235.273 24.7273 234.795 24.5405 234.236 24.5405H222.744C222.185 24.5405 221.707 24.7371 221.318 25.1204C220.928 25.5135 220.729 25.9754 220.729 26.5258V45.4545C220.729 46.0049 220.928 46.4767 221.318 46.86C221.707 47.2531 222.185 47.4398 222.744 47.4398H234.236C234.795 47.4398 235.264 47.2432 235.663 46.86C236.052 46.4668 236.251 46.0049 236.251 45.4545V26.5258C236.251 25.9754 236.052 25.5135 235.663 25.1204Z" fill="#B6B9C5"/>
<path d="M50.2396 18.3267C50.2899 16.5265 49.2239 14.6662 48.5802 12.866C46.8505 7.99535 48.892 4.18483 53.7897 2.39459C61.0708 -0.255771 64.9025 1.90453 66.9642 8.92548C69.1364 16.3165 71.8015 23.5775 74.2855 30.8784C74.8688 26.5078 76.0857 20.9571 76.3472 16.8365C76.4377 15.4063 75.6533 13.9261 75.3013 12.4659C74.9794 11.1158 74.4666 9.75559 74.4464 8.3854C74.3962 5.62503 75.5527 3.29471 78.1373 2.10455C80.0883 1.20443 82.1902 0.474329 84.3021 0.114281C88.1237 -0.535807 91.1911 1.62449 92.5387 5.65503C94.6305 11.9159 96.652 18.1967 98.7136 24.4676C99.3975 26.5679 99.0555 25.4977 99.9003 28.0581L101.117 19.957L114 22.4773C114 22.4773 108.539 49.541 108.338 54.2816C108.258 56.0918 109.303 57.9721 109.917 59.7923C111.566 64.713 109.484 68.5135 104.597 70.2237C97.3258 72.7741 93.5343 70.5438 91.5833 63.4628C89.5619 56.1319 87.0577 48.9209 84.7245 41.6699C84.1714 45.9305 83.1054 51.1612 82.9143 55.0917C82.8439 56.5119 83.6484 57.9821 84.0306 59.4323C84.3725 60.7725 84.9056 62.1227 84.9458 63.4828C85.0262 66.2332 83.8999 68.5635 81.3153 69.7937C79.3642 70.7138 77.2624 71.4839 75.1504 71.864C71.3188 72.5741 68.2112 70.4638 66.7932 66.4732C64.6108 60.2724 62.4889 54.0516 60.3367 47.8507C59.6126 45.7705 59.9847 46.8306 59.0997 44.2903L57.9834 52.3613L45 50.051C45 50.051 50.129 23.0374 50.2597 18.3167L50.2396 18.3267Z" fill="url(#paint0_linear_10_429)"/>
<path d="M50.2396 18.3267C50.2899 16.5265 49.2239 14.6662 48.5802 12.866C46.8505 7.99535 48.892 4.18483 53.7897 2.39459C61.0708 -0.255771 64.9025 1.90453 66.9642 8.92548C69.1364 16.3165 71.8015 23.5775 74.2855 30.8784C74.8688 26.5078 76.0857 20.9571 76.3472 16.8365C76.4377 15.4063 75.6533 13.9261 75.3013 12.4659C74.9794 11.1158 74.4666 9.75559 74.4464 8.3854C74.3962 5.62503 75.5527 3.29471 78.1373 2.10455C80.0883 1.20443 82.1902 0.474329 84.3021 0.114281C88.1237 -0.535807 91.1911 1.62449 92.5387 5.65503C94.6305 11.9159 96.652 18.1967 98.7136 24.4676C99.3975 26.5679 99.0555 25.4977 99.9003 28.0581L101.117 19.957L114 22.4773C114 22.4773 108.539 49.541 108.338 54.2816C108.258 56.0918 109.303 57.9721 109.917 59.7923C111.566 64.713 109.484 68.5135 104.597 70.2237C97.3258 72.7741 93.5343 70.5438 91.5833 63.4628C89.5619 56.1319 87.0577 48.9209 84.7245 41.6699C84.1714 45.9305 83.1054 51.1612 82.9143 55.0917C82.8439 56.5119 83.6484 57.9821 84.0306 59.4323C84.3725 60.7725 84.9056 62.1227 84.9458 63.4828C85.0262 66.2332 83.8999 68.5635 81.3153 69.7937C79.3642 70.7138 77.2624 71.4839 75.1504 71.864C71.3188 72.5741 68.2112 70.4638 66.7932 66.4732C64.6108 60.2724 62.4889 54.0516 60.3367 47.8507C59.6126 45.7705 59.9847 46.8306 59.0997 44.2903L57.9834 52.3613L45 50.051C45 50.051 50.129 23.0374 50.2597 18.3167L50.2396 18.3267Z" fill="#B6B9C5"/>
</svg>
