<svg width="16" height="16" viewBox="0 0 16 16" fill="none" xmlns="http://www.w3.org/2000/svg">
<path fill-rule="evenodd" clip-rule="evenodd" d="M8 16C6.41775 16 4.87101 15.5308 3.55542 14.6518C2.23982 13.7727 1.21447 12.5233 0.608964 11.0615C0.00346253 9.59966 -0.154959 7.99113 0.153723 6.43928C0.462405 4.88743 1.22432 3.46197 2.34314 2.34315C3.46196 1.22433 4.88744 0.462403 6.43929 0.153721C7.99114 -0.15496 9.59967 0.0034663 11.0615 0.608967C12.5233 1.21447 13.7727 2.23985 14.6518 3.55544C15.5308 4.87104 16 6.41775 16 8C16 10.1217 15.1572 12.1566 13.6569 13.6569C12.1566 15.1571 10.1217 16 8 16ZM8 1.33334C6.68146 1.33334 5.39251 1.72433 4.29618 2.45687C3.19985 3.18941 2.3454 4.23061 1.84082 5.44878C1.33623 6.66695 1.20419 8.0074 1.46142 9.30061C1.71866 10.5938 2.35362 11.7817 3.28597 12.714C4.21832 13.6464 5.40617 14.2813 6.69938 14.5386C7.99259 14.7958 9.33305 14.6638 10.5512 14.1592C11.7694 13.6546 12.8106 12.8001 13.5431 11.7038C14.2757 10.6075 14.6667 9.31854 14.6667 8C14.6667 6.23189 13.9643 4.5362 12.714 3.28596C11.4638 2.03572 9.76811 1.33334 8 1.33334ZM7.94665 10.8887C7.92298 10.9875 7.8722 11.0778 7.80001 11.1493C7.73782 11.2119 7.66249 11.2599 7.57947 11.2898C7.49644 11.3196 7.40779 11.3306 7.31998 11.322C7.18138 11.3317 7.04364 11.2936 6.92964 11.2142C6.81565 11.1348 6.73224 11.0187 6.69332 10.8853L4.81331 9.00667C4.71183 8.8923 4.65786 8.74351 4.66239 8.59068C4.66692 8.43784 4.72961 8.2925 4.83768 8.18434C4.94576 8.07619 5.09106 8.01337 5.24389 8.00872C5.39672 8.00407 5.54554 8.05794 5.65999 8.15934L7.11332 9.61533L10.0867 4.344C10.1294 4.26588 10.1873 4.19711 10.257 4.14173C10.3267 4.08636 10.4068 4.0455 10.4925 4.02157C10.5783 3.99765 10.6679 3.99115 10.7562 4.00244C10.8445 4.01373 10.9297 4.0426 11.0067 4.08733C11.1615 4.18285 11.273 4.33481 11.3178 4.5111C11.3626 4.68739 11.3371 4.87419 11.2467 5.032L7.94665 10.8887Z" fill="#95DB99"/>
</svg>
