<svg width="17" height="16" viewBox="0 0 17 16" fill="none"
    xmlns="http://www.w3.org/2000/svg">
    <path fill-rule="evenodd" clip-rule="evenodd" d="M0.828399 0.0350039C0.504358 -0.0777245 0.14931 0.0908144 0.0353776 0.411433C-0.0785545 0.73206 0.0917839 1.08336 0.415834 1.19608L0.632445 1.27143C1.18606 1.46402 1.54991 1.59165 1.81762 1.72162C2.06908 1.8437 2.17993 1.94251 2.25295 2.04824C2.3278 2.15662 2.3856 2.30547 2.41822 2.6036C2.45234 2.91557 2.45319 3.32189 2.45319 3.92901V6.16212C2.45319 7.3539 2.46449 8.21329 2.57815 8.86986C2.69949 9.57081 2.94174 10.0726 3.39471 10.5454C3.88718 11.0593 4.51144 11.283 5.25466 11.3873C5.96636 11.4872 6.87013 11.4872 7.98611 11.4872H12.4688C13.0839 11.4872 13.6014 11.4872 14.0201 11.4365C14.4644 11.3827 14.8696 11.2651 15.2232 10.9799C15.5769 10.6947 15.7751 10.3258 15.9181 9.90623C16.0527 9.51059 16.1572 9.00918 16.2814 8.41317L16.7034 6.38703L16.7042 6.38325L16.7128 6.34039C16.8494 5.66357 16.9643 5.09423 16.9929 4.6363C17.0228 4.15532 16.9675 3.68107 16.6509 3.27378C16.456 3.02318 16.1821 2.88131 15.9329 2.79468C15.6787 2.70632 15.3913 2.6552 15.1013 2.62312C14.5315 2.56011 13.8394 2.56012 13.1606 2.56012H3.66375C3.66102 2.52997 3.65807 2.50031 3.65488 2.47116C3.61033 2.06388 3.51379 1.69242 3.27995 1.35385C3.04429 1.01264 2.73096 0.794106 2.36556 0.616714C2.02383 0.450809 1.5896 0.299771 1.07834 0.121944L0.828399 0.0350039ZM3.69708 3.79087H13.1347C13.8448 3.79087 14.4699 3.79169 14.9631 3.84625C15.2082 3.87336 15.3917 3.91102 15.5205 3.95584C15.6258 3.99246 15.6615 4.02237 15.6666 4.02669C15.6666 4.0266 15.6669 4.02687 15.6666 4.02669C15.7176 4.09349 15.7729 4.21468 15.7513 4.56048C15.7286 4.92443 15.632 5.41038 15.4847 6.14056L15.4844 6.14239L15.0707 8.12813C14.9369 8.77041 14.8468 9.1974 14.7393 9.51313C14.6372 9.81294 14.5413 9.94209 14.4374 10.0259C14.3336 10.1096 14.1864 10.1764 13.8691 10.2148C13.5347 10.2554 13.0939 10.2564 12.4311 10.2564H8.03363C6.85873 10.2564 6.04351 10.2549 5.4293 10.1688C4.83654 10.0856 4.52339 9.93446 4.29739 9.69856C4.03188 9.42156 3.88868 9.15022 3.80418 8.66211C3.712 8.12952 3.69708 7.38385 3.69708 6.16212V3.79087Z" fill="#D0D6E6"/>
    <path fill-rule="evenodd" clip-rule="evenodd" d="M5.18305 15.9999C4.15257 15.9999 3.31721 15.1733 3.31721 14.1538C3.31721 13.1342 4.15257 12.3077 5.18305 12.3077C6.21353 12.3077 7.04888 13.1342 7.04888 14.1538C7.04888 15.1733 6.21353 15.9999 5.18305 15.9999ZM4.5611 14.1538C4.5611 14.4936 4.83956 14.7692 5.18305 14.7692C5.52654 14.7692 5.80499 14.4936 5.80499 14.1538C5.80499 13.8139 5.52654 13.5384 5.18305 13.5384C4.83956 13.5384 4.5611 13.8139 4.5611 14.1538Z" fill="#D0D6E6"/>
    <path fill-rule="evenodd" clip-rule="evenodd" d="M12.6464 16C11.616 16 10.7806 15.1734 10.7806 14.1539C10.7806 13.1342 11.616 12.3078 12.6464 12.3078C13.6768 12.3078 14.5122 13.1342 14.5122 14.1539C14.5122 15.1734 13.6768 16 12.6464 16ZM12.0244 14.1539C12.0244 14.4937 12.3029 14.7692 12.6464 14.7692C12.9899 14.7692 13.2683 14.4937 13.2683 14.1539C13.2683 13.814 12.9899 13.5385 12.6464 13.5385C12.3029 13.5385 12.0244 13.814 12.0244 14.1539Z" fill="#D0D6E6"/>
</svg>
