<svg width="20" height="20" viewBox="0 0 20 20" fill="none" xmlns="http://www.w3.org/2000/svg">
<path fill-rule="evenodd" clip-rule="evenodd" d="M0 8.62704C0 7.72946 0.358213 6.86864 0.995837 6.23395C1.63346 5.59927 2.49826 5.24271 3.4 5.24271H5.605V7.23349H3.4C3.0287 7.23349 2.6726 7.38031 2.41005 7.64165C2.1475 7.90299 2 8.25745 2 8.62704V15.7939C2 16.1635 2.1475 16.5179 2.41005 16.7792C2.6726 17.0406 3.0287 17.1874 3.4 17.1874H10.6C10.9713 17.1874 11.3274 17.0406 11.5899 16.7792C11.8525 16.5179 12 16.1635 12 15.7939V14.0022H14V15.7939C14 16.6914 13.6418 17.5523 13.0042 18.1869C12.3665 18.8216 11.5017 19.1782 10.6 19.1782H3.4C2.49826 19.1782 1.63346 18.8216 0.995837 18.1869C0.358213 17.5523 0 16.6914 0 15.7939V8.62704Z" fill="#8C8D90"/>
<path fill-rule="evenodd" clip-rule="evenodd" d="M8 0H16C17.0609 0 18.0783 0.419485 18.8284 1.16617C19.5786 1.91286 20 2.92559 20 3.98157V11.9447C20 13.0007 19.5786 14.0134 18.8284 14.7601C18.0783 15.5068 17.0609 15.9263 16 15.9263H8C6.93913 15.9263 5.92172 15.5068 5.17157 14.7601C4.42143 14.0134 4 13.0007 4 11.9447V3.98157C4 2.92559 4.42143 1.91286 5.17157 1.16617C5.92172 0.419485 6.93913 0 8 0ZM8 1.99078C7.46957 1.99078 6.96086 2.20053 6.58579 2.57387C6.21071 2.94721 6 3.45358 6 3.98157V11.9447C6 12.4727 6.21071 12.9791 6.58579 13.3524C6.96086 13.7257 7.46957 13.9355 8 13.9355H16C16.5304 13.9355 17.0391 13.7257 17.4142 13.3524C17.7893 12.9791 18 12.4727 18 11.9447V3.98157C18 3.45358 17.7893 2.94721 17.4142 2.57387C17.0391 2.20053 16.5304 1.99078 16 1.99078H8Z" fill="#8C8D90"/>
</svg>
