<svg width="15" height="16" viewBox="0 0 15 16" fill="none" xmlns="http://www.w3.org/2000/svg">
<path fill-rule="evenodd" clip-rule="evenodd" d="M1.16647 15.0254H1.3889C1.91997 15.0254 2.3131 14.9409 2.56916 14.7735C2.79331 14.6287 2.95539 14.4062 3.05454 14.1033C3.12782 13.879 3.16489 13.6406 3.16489 13.387C3.16489 13.1151 3.12265 12.8632 3.0373 12.6314C2.95108 12.3997 2.83469 12.2189 2.68641 12.0884C2.54502 11.9662 2.3838 11.8826 2.20361 11.8391C2.02343 11.7955 1.75186 11.773 1.3889 11.773H1.16647V15.0254ZM0 15.9123V10.8868H1.43287C2.04239 10.8868 2.52864 10.9437 2.89418 11.0575C3.3718 11.2065 3.73649 11.4826 3.98995 11.8851C4.24342 12.2884 4.37102 12.7938 4.37102 13.4012C4.37102 14.0255 4.24342 14.535 3.98995 14.93C3.67355 15.4278 3.18472 15.7316 2.52174 15.8378C2.21741 15.8872 1.82772 15.9123 1.35269 15.9123H0ZM7.53246 11.6849C7.11088 11.6849 6.78585 11.8548 6.55652 12.1953C6.34961 12.5033 6.24616 12.8974 6.24616 13.3793C6.24616 13.9374 6.36858 14.3709 6.61515 14.6779C6.8462 14.9691 7.15398 15.1139 7.53591 15.1139C7.9549 15.1139 8.28165 14.9432 8.51529 14.5993C8.7222 14.2972 8.82566 13.8981 8.82566 13.4011C8.82566 12.8547 8.70237 12.4288 8.45667 12.1209C8.22561 11.8305 7.91697 11.6849 7.53246 11.6849ZM7.53591 10.798C8.34976 10.798 8.97308 11.0482 9.40674 11.5502C9.82315 12.0297 10.0309 12.6463 10.0309 13.4011C10.0309 14.2261 9.78521 14.8821 9.2938 15.3691C8.86963 15.79 8.28338 16 7.53591 16C6.72292 16 6.09873 15.7498 5.66508 15.2486C5.24867 14.7692 5.04003 14.1424 5.04003 13.3693C5.04003 12.561 5.2866 11.9125 5.77888 11.4255C6.20477 11.0072 6.79102 10.798 7.53591 10.798ZM14.6595 14.7271L15 15.6316C14.6922 15.7763 14.425 15.8734 14.1956 15.9244C13.9663 15.9746 13.6835 15.9997 13.3482 15.9997C12.8412 15.9997 12.4222 15.9295 12.0912 15.7881C11.6273 15.5889 11.2782 15.276 11.0428 14.8484C10.8307 14.4652 10.7247 13.9966 10.7247 13.4435C10.7247 12.5105 11.0178 11.8027 11.6049 11.3232C12.0308 10.9734 12.5929 10.7986 13.2895 10.7986C13.587 10.7986 13.8568 10.8245 14.1008 10.8772C14.3439 10.9308 14.6207 11.0245 14.9293 11.1592L14.5388 12.011C14.1275 11.7935 13.7327 11.6847 13.3551 11.6847C12.8998 11.6847 12.5515 11.8361 12.3101 12.1382C12.0567 12.4553 11.9299 12.8737 11.9299 13.3941C11.9299 13.933 12.0627 14.3547 12.3282 14.6585C12.5938 14.9622 12.9602 15.1136 13.4283 15.1136C13.6396 15.1136 13.8353 15.0869 14.0129 15.0308C14.1905 14.9756 14.406 14.8743 14.6595 14.7271ZM10.0313 0H0.5478V9.20416H2.27207V1.67348H9.3157L12.6177 4.8782V9.20416H14.3419V4.18371L10.0313 0Z" fill="white"/>
</svg>
