<svg width="14" height="16" viewBox="0 0 14 16" fill="none" xmlns="http://www.w3.org/2000/svg">
<path fill-rule="evenodd" clip-rule="evenodd" d="M3.115 11.2639C2.61993 10.9736 2.03539 10.8577 1.46125 10.9358H0V15.9831H1.16375V14.0567H1.6625C2.17918 14.1077 2.69836 13.9859 3.1325 13.7118C3.501 13.4079 3.70417 12.9584 3.68375 12.492C3.71103 12.0185 3.49931 11.5613 3.115 11.2639ZM2.17875 13.1061C1.95894 13.1991 1.71727 13.234 1.47875 13.2071H1.1375V11.777H1.47875C1.72654 11.7517 1.97653 11.7986 2.19625 11.9116C2.40087 12.0486 2.51683 12.2779 2.5025 12.5173C2.52901 12.7586 2.40106 12.9913 2.17875 13.1061ZM6.18625 10.9358H4.73375V15.9831H6.125C6.83403 16.0498 7.54801 15.9183 8.18125 15.6045C8.87803 15.1053 9.25027 14.2905 9.16125 13.4594C9.21341 12.7475 8.94954 12.0476 8.435 11.5331C7.79941 11.0514 6.98887 10.8362 6.18625 10.9358ZM7.34125 14.839C6.97672 15.036 6.55931 15.1239 6.1425 15.0914H5.915V11.8275H6.125C6.86 11.8275 7.14875 11.8948 7.4375 12.1471C7.78793 12.4979 7.96891 12.9741 7.93625 13.4594C7.98126 13.9847 7.75966 14.4985 7.34125 14.839ZM10.4387 15.9831H11.62V13.8716H14V12.9799H11.62V11.8275H14V10.9358H10.4387V15.9831ZM9.625 0H0V9.25337H1.75V1.68243H8.89875L12.25 4.90428V9.25337H14V4.20607L9.625 0Z" fill="white"/>
</svg>
