<svg width="38" height="38" viewBox="0 0 38 38" fill="none" xmlns="http://www.w3.org/2000/svg">
<path d="M26.2 16.3C26.2 17.7912 25.3941 19 24.4 19C23.4059 19 22.6 17.7912 22.6 16.3C22.6 14.8088 23.4059 13.6 24.4 13.6C25.3941 13.6 26.2 14.8088 26.2 16.3Z" fill="white"/>
<path d="M15.4 16.3C15.4 17.7912 14.5941 19 13.6 19C12.6059 19 11.8 17.7912 11.8 16.3C11.8 14.8088 12.6059 13.6 13.6 13.6C14.5941 13.6 15.4 14.8088 15.4 16.3Z" fill="white"/>
<path d="M13.6 28C15.1307 26.8655 16.9923 26.2 19 26.2C21.0077 26.2 22.8693 26.8655 24.4 28M26.2 16.3C26.2 17.7912 25.3941 19 24.4 19C23.4059 19 22.6 17.7912 22.6 16.3C22.6 14.8088 23.4059 13.6 24.4 13.6C25.3941 13.6 26.2 14.8088 26.2 16.3ZM15.4 16.3C15.4 17.7912 14.5941 19 13.6 19C12.6059 19 11.8 17.7912 11.8 16.3C11.8 14.8088 12.6059 13.6 13.6 13.6C14.5941 13.6 15.4 14.8088 15.4 16.3ZM1 19C1 10.5147 1 6.27207 3.63605 3.63605C6.27207 1 10.5147 1 19 1C27.4852 1 31.728 1 34.3639 3.63605C37 6.27207 37 10.5147 37 19C37 27.4852 37 31.728 34.3639 34.3639C31.728 37 27.4852 37 19 37C10.5147 37 6.27207 37 3.63605 34.3639C1 31.728 1 27.4852 1 19Z" stroke="white" stroke-width="2" stroke-linecap="round"/>
</svg>
