<svg enable-background="new 0 0 28 28" viewBox="0 0 28 28" width="20" height="20"
    xmlns="http://www.w3.org/2000/svg">
    <switch>
        <foreignObject height="1" requiredExtensions="http://ns.adobe.com/AdobeIllustrator/10.0/" width="1"/>
        <g>
            <path d="m19 25c-.6 0-1-.4-1-1v-4c0-.6.4-1 1-1s1 .4 1 1v1h5c.6 0 1 .4 1 1s-.4 1-1 1h-5v1c0 .6-.4 1-1 1zm-4-2h-12c-.6 0-1-.4-1-1s.4-1 1-1h12c.6 0 1 .4 1 1s-.4 1-1 1zm-6-6c-.6 0-1-.4-1-1v-1h-5c-.6 0-1-.4-1-1s.4-1 1-1h5v-1c0-.6.4-1 1-1s1 .4 1 1v4c0 .6-.4 1-1 1zm16-2h-12c-.6 0-1-.4-1-1s.4-1 1-1h12c.6 0 1 .4 1 1s-.4 1-1 1zm-6-6c-.6 0-1-.4-1-1v-4c0-.6.4-1 1-1s1 .4 1 1v1h5c.6 0 1 .4 1 1s-.4 1-1 1h-5v1c0 .6-.4 1-1 1zm-4-2h-12c-.6 0-1-.4-1-1s.4-1 1-1h12c.6 0 1 .4 1 1s-.4 1-1 1z" fill="rgb(0,0,0)"/>
        </g>
    </switch>
</svg>