<svg width="17" height="16" viewBox="0 0 17 16" fill="none" xmlns="http://www.w3.org/2000/svg">
<path fill-rule="evenodd" clip-rule="evenodd" d="M8.49339 1.30609C7.59211 0.493411 6.40643 0 5.10752 0C2.28671 0 0 2.32698 0 5.19746C0 6.51927 0.478257 7.73256 1.27688 8.6497L8.5 16L15.5093 8.8673L15.7165 8.64301C16.5151 7.72577 17 6.51927 17 5.19746C17 2.32698 14.7133 0 11.8924 0C10.5935 0 9.40789 0.493411 8.50661 1.3061L8.5 1.29937L8.49339 1.30609ZM8.5 3.24788L8.55185 3.29459L9.35746 2.47474L9.44142 2.39902C10.0931 1.81145 10.9491 1.45455 11.8924 1.45455C13.9428 1.45455 15.5833 3.14253 15.5833 5.19746C15.5833 6.13944 15.2419 6.99869 14.6732 7.65876L14.4965 7.84999L8.5 13.9521L2.30703 7.65004C1.75093 6.99714 1.41667 6.13905 1.41667 5.19746C1.41667 3.14253 3.05716 1.45455 5.10752 1.45455C6.05082 1.45455 6.90691 1.81145 7.55858 2.39901L7.64254 2.4747L8.44824 3.29456L8.5 3.24788Z" fill="#D0D6E6"/>
</svg>