<svg width="24" height="24" viewBox="0 0 24 24" fill="none" xmlns="http://www.w3.org/2000/svg">
<path d="M12.09 0.00576212C10.0636 -0.0172722 8.06447 0.50817 6.2767 1.53368C4.48892 2.55918 2.97004 4.05177 1.86 5.87391V1.60177H0V7.16361C0.00780682 7.6512 0.19252 8.11622 0.514761 8.45954C0.837002 8.80286 1.27128 8.99731 1.725 9.00144H6.885V7.0024H3.405C4.34117 5.44788 5.62897 4.174 7.14789 3.29997C8.66681 2.42594 10.3672 1.98031 12.09 2.0048C14.6533 1.90871 17.148 2.90539 19.0305 4.77763C20.9131 6.64988 22.0307 9.24592 22.14 12C22.0307 14.7541 20.9131 17.3501 19.0305 19.2224C17.148 21.0946 14.6533 22.0913 12.09 21.9952C9.5267 22.0913 7.03196 21.0946 5.14945 19.2224C3.26694 17.3501 2.14927 14.7541 2.04 12H0.18C0.285706 15.2857 1.59829 18.3925 3.83044 20.6404C6.06258 22.8883 9.03246 24.0943 12.09 23.9942C15.1475 24.0943 18.1174 22.8883 20.3496 20.6404C22.5817 18.3925 23.8943 15.2857 24 12C23.8943 8.71435 22.5817 5.60752 20.3496 3.35959C18.1174 1.11166 15.1475 -0.0942757 12.09 0.00576212Z" fill="#D0D6E6"/>
<path d="M11.16 6.00288V12.9995H16.56V11.0005H13.02V6.00288H11.16Z" fill="#D0D6E6"/>
</svg>
