<svg height="20" viewBox="0 0 24 24" width="20"
    xmlns="http://www.w3.org/2000/svg">
    <path d="m18 22.75h-12a4.756 4.756 0 0 1 -4.75-4.75v-7.078a4.728 4.728 0 0 1 1.782-3.709l6-4.8a4.726 4.726 0 0 1 5.935 0l6 4.8a4.728 4.728 0 0 1 1.782 3.709v7.078a4.756 4.756 0 0 1 -4.749 4.75zm-14.03-14.366a3.234 3.234 0 0 0 -1.22 2.538v7.078a3.254 3.254 0 0 0 3.25 3.25h12a3.254 3.254 0 0 0 3.25-3.25v-7.078a3.234 3.234 0 0 0 -1.22-2.538l-6-4.8a3.232 3.232 0 0 0 -4.061 0z" fill="CurrentColor"/>
    <path d="m15 18.75h-6a.75.75 0 0 1 0-1.5h6a.75.75 0 0 1 0 1.5z" fill="CurrentColor"/>
</svg>