<svg xmlns="http://www.w3.org/2000/svg" width="56" height="56" viewBox="0 0 56 56" fill="none">
<rect width="56" height="56" rx="16" fill="#005BFF"/>
<path d="M34.1779 21.8896C29.4521 21.8896 25.6222 24.6221 25.6222 27.9966C25.6222 31.371 29.4521 34.1035 34.1779 34.1035C38.9036 34.1035 42.7335 31.371 42.7335 27.9966C42.7335 24.6221 38.9036 21.8896 34.1779 21.8896ZM34.1779 31.2591C30.9154 31.2591 28.4741 29.542 28.4741 28.004C28.4741 26.4661 30.9154 24.749 34.1779 24.749C37.4404 24.749 39.8816 26.4661 39.8816 28.004C39.8816 29.542 37.4478 31.2591 34.1779 31.2591Z" fill="white"/>
<path d="M6.11438 21.8896C2.7399 21.8896 0.00746566 24.6221 0 27.9966C0 31.371 2.73244 34.1035 6.10691 34.1109C9.48139 34.1109 12.2138 31.3785 12.2213 28.004C12.2213 24.6221 9.48886 21.8896 6.11438 21.8896ZM9.3694 27.9966C9.3694 29.7958 7.9136 31.2516 6.11438 31.2591C4.31515 31.2591 2.85189 29.8033 2.85189 28.004C2.85189 26.2048 4.30769 24.7415 6.10691 24.7415C7.90614 24.7415 9.3694 26.1973 9.3694 27.9966Z" fill="white"/>
<path d="M23.3899 30.9828H18.5447L24.7262 22.8229C24.9278 22.5541 24.7412 22.1659 24.3977 22.1659H15.5136C14.6327 22.1659 13.8786 22.9722 14.0653 23.883C14.1996 24.5549 14.8268 25.0103 15.5136 25.0103H19.4928L13.3038 33.1777C13.1022 33.4465 13.2888 33.8272 13.6248 33.8272H23.3376C24.0244 33.8272 24.6516 33.3718 24.7859 32.6999C24.9726 31.7816 24.2708 30.9828 23.3899 30.9828Z" fill="white"/>
<path d="M56 23.5918V33.4241C56 33.5137 55.9701 33.6033 55.9104 33.6779C55.7686 33.8571 55.5073 33.887 55.3281 33.7451L47.6235 27.6307V32.4088C47.6235 33.2151 46.9591 33.8571 46.1528 33.8347C45.3764 33.8123 44.7717 33.1479 44.7717 32.3714V22.5765C44.7717 22.4794 44.8015 22.3898 44.8612 22.3152C45.0031 22.1435 45.2644 22.1136 45.4361 22.2555L53.1406 28.3698V23.6291C53.1406 22.8527 53.7454 22.1957 54.5143 22.1659C55.3281 22.136 56 22.7855 56 23.5918Z" fill="white"/>
</svg>