<svg width="18" height="18" viewBox="0 0 18 18" fill="none" xmlns="http://www.w3.org/2000/svg">
<path d="M3.3147 0.686401C3.88927 0.322712 4.59805 0.525066 4.96606 1.01843L7.15845 3.95593C7.54326 4.47182 7.49049 5.19225 7.0354 5.64734L5.71216 6.9696C5.78354 7.12431 5.89188 7.34104 6.05005 7.6073C6.40377 8.20274 7.00391 9.05041 7.97778 10.0243C8.95169 10.9982 9.79934 11.5983 10.3948 11.952C10.6604 12.1098 10.8769 12.2175 11.0315 12.2889L12.3547 10.9667C12.8098 10.5115 13.5303 10.4589 14.0461 10.8436L16.9836 13.036C17.4771 13.404 17.6793 14.1128 17.3157 14.6874C16.6581 15.7261 15.4857 16.9361 13.2405 17.4052C11.8084 17.7042 10.2929 17.2817 8.85474 16.5067C7.41051 15.7284 5.98794 14.5657 4.71216 13.2899C3.43639 12.0142 2.27366 10.5916 1.49536 9.14734C0.720355 7.70915 0.29788 6.19366 0.596924 4.7616C1.06592 2.51639 2.27585 1.344 3.3147 0.686401Z" stroke="#D0D6E6" stroke-linecap="round" stroke-linejoin="round"/>
</svg>
