<svg width="16" height="16" viewBox="0 0 16 16" fill="none" xmlns="http://www.w3.org/2000/svg">
<path fill-rule="evenodd" clip-rule="evenodd" d="M12.7362 4.70588C12.7362 2.1069 10.6157 0 8.00003 0C5.38426 0 3.26379 2.1069 3.26379 4.70588C3.26379 6.0835 3.85976 7.32252 4.80831 8.1827C2.24288 9.28448 0.368483 11.6735 0.0104673 14.532C-0.0942123 15.3677 0.602597 16 1.3693 16H14.6307C15.3974 16 16.0942 15.3677 15.9895 14.532C15.6315 11.6735 13.7571 9.28449 11.1917 8.18271C12.1402 7.32253 12.7362 6.0835 12.7362 4.70588ZM9.74343 8.38513C9.72003 8.20113 9.80756 8.02071 9.96698 7.92424C11.0605 7.26287 11.789 6.0687 11.789 4.70588C11.789 2.62669 10.0926 0.941176 8.00003 0.941176C5.9074 0.941176 4.21103 2.62669 4.21103 4.70588C4.21103 6.06871 4.93953 7.26287 6.03298 7.92424C6.19241 8.02071 6.27993 8.20113 6.25663 8.38513C6.23324 8.56904 6.10336 8.72226 5.92484 8.77638C3.28638 9.57572 1.29961 11.8605 0.950452 14.6482C0.925919 14.8441 1.08973 15.0588 1.3693 15.0588H14.6307C14.9102 15.0588 15.074 14.8441 15.0495 14.6482C14.7003 11.8605 12.7136 9.57572 10.0752 8.77638C9.8966 8.72226 9.76673 8.56904 9.74343 8.38513Z" fill="#D0D6E6"/>
</svg>
