<svg width="27" height="26" viewBox="0 0 27 26" fill="none" xmlns="http://www.w3.org/2000/svg">
<path d="M13.4938 16.8153C15.5638 16.8153 17.2419 15.1078 17.2419 13.0013C17.2419 10.8948 15.5638 9.18731 13.4938 9.18731C11.4237 9.18731 9.74563 10.8948 9.74563 13.0013C9.74563 15.1078 11.4237 16.8153 13.4938 16.8153Z" stroke="#D0D6E6" stroke-width="2" stroke-miterlimit="10" stroke-linecap="round" stroke-linejoin="round"/>
<path d="M1 14.12V11.8824C1 10.5602 2.06197 9.46693 3.37381 9.46693C5.63518 9.46693 6.55972 7.83962 5.42279 5.84362C4.77311 4.69941 5.16042 3.21195 6.29735 2.55085L8.45877 1.29223C9.44578 0.694703 10.7201 1.05068 11.3073 2.05503L11.4448 2.29659C12.5692 4.29259 14.4183 4.29259 15.5552 2.29659L15.6927 2.05503C16.2799 1.05068 17.5542 0.694703 18.5412 1.29223L20.7026 2.55085C21.8396 3.21195 22.2269 4.69941 21.5772 5.84362C20.4403 7.83962 21.3648 9.46693 23.6262 9.46693C24.9255 9.46693 26 10.5475 26 11.8824V14.12C26 15.4422 24.938 16.5355 23.6262 16.5355C21.3648 16.5355 20.4403 18.1628 21.5772 20.1588C22.2269 21.3157 21.8396 22.7905 20.7026 23.4516L18.5412 24.7102C17.5542 25.3077 16.2799 24.9518 15.6927 23.9474L15.5552 23.7059C14.4308 21.7099 12.5817 21.7099 11.4448 23.7059L11.3073 23.9474C10.7201 24.9518 9.44578 25.3077 8.45877 24.7102L6.29735 23.4516C5.16042 22.7905 4.77311 21.303 5.42279 20.1588C6.55972 18.1628 5.63518 16.5355 3.37381 16.5355C2.06197 16.5355 1 15.4422 1 14.12Z" stroke="#D0D6E6" stroke-width="2" stroke-miterlimit="10" stroke-linecap="round" stroke-linejoin="round"/>
</svg>
