<svg width="48" height="48" viewBox="0 0 48 48" fill="none" xmlns="http://www.w3.org/2000/svg">
<rect width="48" height="48" rx="16" fill="#F5F6F7"/>
<path d="M15.1649 22.968C15.1649 22.968 23.5681 19.4557 26.4825 18.219C27.5997 17.7243 31.3884 16.1412 31.3884 16.1412C31.3884 16.1412 33.1371 15.4487 32.9914 17.1306C32.9428 17.8232 32.5542 20.2472 32.1656 22.8691C31.5827 26.5793 30.9513 30.6358 30.9513 30.6358C30.9513 30.6358 30.8541 31.7736 30.0284 31.9715C29.2026 32.1694 27.8425 31.279 27.5997 31.081C27.4054 30.9327 23.9567 28.7065 22.6938 27.6182C22.3537 27.3214 21.9652 26.7278 22.7423 26.0352C24.491 24.4027 26.5796 22.3744 27.8425 21.0882C28.4255 20.4946 29.0083 19.1094 26.5796 20.7914C23.1309 23.2154 19.7308 25.491 19.7308 25.491C19.7308 25.491 18.9536 25.9857 17.4964 25.5404C16.0391 25.0953 14.3391 24.5016 14.3391 24.5016C14.3391 24.5016 13.1734 23.7596 15.1649 22.968Z" fill="#9D9EA2"/>
</svg>
