<svg width="135" height="16" viewBox="0 0 135 16" fill="none" xmlns="http://www.w3.org/2000/svg">
<path d="M86.2084 15.6923V0.308069H93.5242C95.7788 0.308069 97.4587 0.857359 98.5639 1.95636C99.4774 2.86496 99.9339 4.08074 99.9339 5.60461C99.9339 7.86069 98.8728 9.436 96.7511 10.3298L100.442 15.6923H95.4915L92.3754 11.0328H90.4959V15.6923H86.2084ZM125.14 15.6923V12.0997H123.626C124.52 9.81901 125.4 7.54207 126.314 5.253C127.213 7.53323 128.08 9.82117 128.969 12.0997H127.488V15.6923H135L128.414 0.197941H124.28L117.694 15.6923H125.14ZM74.8447 15.6923V12.0997H73.3318C74.2254 9.81901 75.1052 7.54207 76.0187 5.253C76.918 7.53323 77.7848 9.82117 78.6746 12.0997H77.1933V15.6923H84.7056L78.1189 0.197941H73.9853L67.3986 15.6923H74.8447ZM49.4517 15.6923V0.308069H53.9826L57.6738 6.26385L61.3646 0.308069H65.8958V15.6923H61.6298V6.85735L57.6738 12.8791H57.585L53.6511 6.90131V15.6923H49.4517ZM102.1 15.6923V0.308069H106.388V6.54925L111.715 0.308069H116.798L110.941 6.9231L116.997 15.6923H111.847L107.957 9.97785L106.388 11.7145V15.6923H102.1ZM90.4959 7.69265H93.3257C94.0474 7.69265 94.6111 7.52754 95.0161 7.19771C95.4211 6.86814 95.6244 6.41032 95.6244 5.82409C95.6244 5.22333 95.4211 4.76927 95.0161 4.46183C94.6111 4.15397 94.0401 4.00025 93.3036 4.00025H90.4959V7.69265Z" fill="rgba(255,255,255,.5)"/>
<path d="M28.5237 13.67C26.9249 15.2233 24.9393 16 22.5669 16C20.1943 16 18.2161 15.227 16.632 13.6814C15.0484 12.1354 14.2564 10.2415 14.2564 7.99974C14.2564 5.77302 15.0557 3.8828 16.6544 2.32997C18.2531 0.776656 20.2387 0 22.6112 0C24.9832 0 26.9614 0.773029 28.5456 2.31856C30.1297 3.86461 30.9217 5.75802 30.9217 7.99974C30.9217 10.2269 30.1224 12.1172 28.5237 13.67ZM4.6416 15.6921V4.04427H0V0.307856H13.5708V4.04427H8.92919V15.6921H4.6416ZM33.1543 15.6921V0.307856H39.7851C41.7592 0.307856 43.325 0.787549 44.4815 1.74749C45.6386 2.70691 46.2165 4.04427 46.2165 5.75802C46.2165 7.51638 45.6051 8.87921 44.3824 9.84586C43.159 10.813 41.553 11.2964 39.5638 11.2964H37.4419V15.6921H33.1543ZM37.4419 7.95614H39.4755C40.2415 7.95614 40.8419 7.77288 41.2768 7.40635C41.7117 7.04029 41.9289 6.54194 41.9289 5.91217C41.9289 5.25287 41.7117 4.75084 41.2768 4.40665C40.8419 4.06242 40.2342 3.89006 39.4536 3.89006H37.4419V7.95614ZM22.6112 12.1535C23.775 12.1535 24.7216 11.7507 25.451 10.9449C26.1804 10.1392 26.5454 9.15745 26.5454 7.99974C26.5454 6.85708 26.1695 5.879 25.4181 5.06595C24.6663 4.25296 23.716 3.84646 22.5669 3.84646C21.4176 3.84646 20.4779 4.24933 19.7484 5.05506C19.0191 5.86079 18.6546 6.8425 18.6546 7.99974C18.6546 9.14292 19.0269 10.121 19.7709 10.934C20.515 11.7471 21.4615 12.1535 22.6112 12.1535Z" fill="rgba(255,255,255,.5)"/>
</svg>
