<svg xmlns="http://www.w3.org/2000/svg" width="56" height="56" viewBox="0 0 56 56" fill="none">
<rect width="56" height="56" rx="16" fill="#D90000"/>
<path fill-rule="evenodd" clip-rule="evenodd" d="M31.9336 23.7368C31.7276 23.7368 31.5658 23.9025 31.5658 24.1134C31.5658 24.3244 31.7276 24.4901 31.9336 24.4901C32.1395 24.4901 32.3014 24.3244 32.3014 24.1134C32.3014 23.9025 32.1395 23.7368 31.9336 23.7368ZM34.3366 23.3802C34.3366 23.2245 34.2729 23.0537 34.1601 22.9432C34.0571 22.8478 33.9051 22.7925 33.7677 22.7925C33.6157 22.7925 33.498 22.8377 33.395 22.9332C33.2675 23.0436 33.2038 23.1893 33.2038 23.3802C33.2038 23.571 33.2773 23.7317 33.3901 23.8322C33.4637 23.8975 33.5863 23.9728 33.7678 23.9728C33.9541 23.9728 34.0767 23.8975 34.1552 23.8222C34.2826 23.7066 34.3366 23.5359 34.3366 23.3802ZM34.626 22.5514C34.778 22.7071 34.93 22.9683 34.93 23.3801C34.93 23.8523 34.7289 24.1084 34.6112 24.2239C34.4543 24.3746 34.2189 24.4951 33.9198 24.4951C33.7775 24.4951 33.4931 24.47 33.2675 24.1586V25.5348L32.6937 25.5348V22.3405H33.2675V22.6117C33.3558 22.4811 33.5569 22.2752 33.9296 22.2752C34.1061 22.2702 34.3954 22.3154 34.626 22.5514ZM36.156 23.5258L35.5234 22.3405H34.8564L35.8275 24.1134L35.0771 25.5298H35.7245L37.3674 22.3355H36.72L36.156 23.5258ZM38 23.561C38 21.5972 36.4454 20 34.523 20C32.6054 20 31.0459 21.5921 31.0459 23.561C31.0459 25.5248 32.6005 27.1219 34.523 27.1219C36.4454 27.1169 38 25.5248 38 23.561Z" fill="white"/>
<path fill-rule="evenodd" clip-rule="evenodd" d="M34.7818 28.4422H32.7113L29.319 33.0783V28.4422H27.2483V35.9659H29.3189L32.7112 31.3298L32.7113 35.9659H34.7818V28.4422Z" fill="white"/>
<path fill-rule="evenodd" clip-rule="evenodd" d="M19 36H22.8291C23.8223 36 24.8633 35.8223 25.7189 35.0564C26.5026 34.3395 26.6941 33.3775 26.6941 32.6912C26.6941 32.0785 26.5565 31.1655 25.8744 30.5037C25.5812 30.2219 25.1385 29.891 24.3847 29.7685C24.6898 29.5908 25.665 28.978 25.665 27.4707C25.665 26.4903 25.2701 25.5773 24.606 25.0504C23.6846 24.3151 22.4521 24.3151 21.818 24.3151L19 24.3151V36ZM23.5889 27.6423C23.5889 26.5761 22.7872 26.1717 21.8778 26.1717H21.2257V29.168H21.8598C22.2009 29.168 23.5889 29.1312 23.5889 27.6423ZM23.7086 33.8248C23.212 34.1251 22.5958 34.1373 22.1889 34.1373H21.2316V30.9143H22.0513C22.5299 30.9143 23.0923 30.9143 23.571 31.141C24.2889 31.4719 24.4086 32.103 24.4086 32.4706C24.4086 32.9363 24.253 33.4939 23.7086 33.8248Z" fill="white"/>
</svg>