<svg width="48" height="48" viewBox="0 0 48 48" fill="none" xmlns="http://www.w3.org/2000/svg">
<rect width="48" height="48" rx="16" fill="#F5F6F7"/>
<path fill-rule="evenodd" clip-rule="evenodd" d="M35.4474 17.9395C35.6162 17.3868 35.4474 17 34.6596 17H32.0335C31.3582 17 31.0581 17.35 30.8892 17.7368C30.8892 17.7368 29.5574 20.9421 27.6629 23.0053C27.0439 23.6132 26.7813 23.7974 26.4436 23.7974C26.2748 23.7974 26.0309 23.6132 26.0309 23.0605V17.9395C26.0309 17.2763 25.8434 17 25.2806 17H21.1539C20.7412 17 20.4786 17.3132 20.4786 17.5895C20.4786 18.2158 21.4165 18.3632 21.529 20.0947V23.8895C21.529 24.7184 21.379 24.8658 21.0413 24.8658C20.1597 24.8658 17.9838 21.6605 16.7082 17.9763C16.4456 17.2947 16.2018 17 15.5265 17H12.9004C12.1501 17 12 17.35 12 17.7368C12 18.4184 12.8816 21.8079 16.1455 26.2842C18.3214 29.3421 21.379 31 24.1551 31C25.8246 31 26.0309 30.6316 26.0309 30.0053V27.6842C26.0309 26.9474 26.181 26.8 26.725 26.8C27.1189 26.8 27.7754 26.9842 29.3323 28.4579C31.1143 30.2079 31.4145 31 32.4086 31H35.0347C35.7851 31 36.1602 30.6316 35.9351 29.9132C35.6913 29.1947 34.8472 28.1447 33.7217 26.8921C33.1027 26.1737 32.1835 25.4184 31.9209 25.0316C31.527 24.5342 31.6396 24.3132 31.9209 23.8895C31.9209 23.8711 35.1285 19.45 35.4474 17.9395Z" fill="#9D9EA2"/>
</svg>
