<svg width="48" height="48" viewBox="0 0 48 48" fill="none" xmlns="http://www.w3.org/2000/svg">
<rect width="48" height="48" rx="16" fill="#F5F6F7"/>
<path d="M31.1186 16.919C29.2641 15.0412 26.7199 13.9877 24.0707 14.0001H24.0538C18.598 14.0001 14.1084 18.4558 14.1084 23.8703C14.1084 23.8957 14.1089 23.9206 14.1089 23.946C14.1295 25.6675 14.5785 27.3573 15.4161 28.8649L14 34L19.2778 32.6487C20.7357 33.443 22.3749 33.8525 24.0381 33.8378C29.5141 33.8081 34.0032 29.3271 33.9999 23.892C34.0129 21.2806 32.9754 18.7693 31.1186 16.919ZM24.0707 32.1622C22.5964 32.1698 21.1481 31.7773 19.8823 31.0271L19.5555 30.8649L16.4128 31.6757L17.2298 28.5946L17.012 28.2703C16.2027 26.9735 15.774 25.4784 15.7739 23.953C15.7739 19.4547 19.5038 15.7531 24.0364 15.7531C28.5691 15.7531 32.2989 19.4547 32.2989 23.953C32.2989 26.7855 30.8202 29.4244 28.3953 30.9189C27.1129 31.7342 25.621 32.1658 24.098 32.1622M28.8855 26.1622L28.2864 25.892C28.2864 25.892 27.4149 25.5136 26.8703 25.2433C26.8158 25.2433 26.7614 25.1893 26.7069 25.1893C26.5726 25.1925 26.4414 25.2297 26.3256 25.2974C26.2096 25.3649 26.2712 25.3514 25.5086 26.2163C25.4569 26.3174 25.3507 26.3806 25.2363 26.3784H25.1818C25.1 26.3648 25.0241 26.3272 24.964 26.2703L24.6917 26.1622C24.1073 25.9167 23.5723 25.5688 23.1121 25.1352C23.0032 25.0271 22.8398 24.919 22.7309 24.8109C22.3277 24.4275 21.9795 23.991 21.696 23.5136L21.6416 23.4055C21.5942 23.3394 21.5575 23.2665 21.5326 23.1893C21.5184 23.0956 21.5377 23 21.5871 22.919C21.6367 22.8379 21.805 22.6487 21.9684 22.4866C22.1318 22.3244 22.1318 22.2163 22.2407 22.1082C22.2967 22.031 22.3354 21.9429 22.3541 21.8496C22.3729 21.7564 22.3714 21.6602 22.3496 21.5676C22.0958 20.8682 21.8049 20.1826 21.4782 19.5136C21.3906 19.3784 21.2541 19.2817 21.0969 19.2433H20.4978C20.3888 19.2433 20.2799 19.2974 20.171 19.2974L20.1165 19.3514C20.0076 19.4055 19.8987 19.5136 19.7897 19.5677C19.6808 19.6217 19.6263 19.7839 19.5174 19.892C19.1366 20.3695 18.926 20.9587 18.9183 21.5676C18.9243 21.996 19.0169 22.4187 19.1906 22.8109L19.2451 22.973C19.7341 24.0107 20.4181 24.9464 21.2603 25.7298L21.4782 25.946C21.6367 26.0763 21.7826 26.2211 21.9139 26.3784C23.0424 27.353 24.3828 28.0557 25.83 28.4325C25.9934 28.4865 26.2113 28.4865 26.3746 28.5406H26.9193C27.204 28.5266 27.4824 28.4529 27.7363 28.3244C27.8697 28.2644 27.9972 28.1919 28.1176 28.1082L28.2265 28C28.3354 27.8919 28.4444 27.8379 28.5533 27.7298C28.6597 27.6356 28.7515 27.5263 28.8256 27.4055C28.9302 27.1633 29.0037 26.9092 29.0435 26.6487V26.2703C28.9945 26.2267 28.9395 26.1903 28.8801 26.1622" fill="#9D9EA2"/>
</svg>
