<svg width="240" height="42" viewBox="0 0 241 43" fill="none" xmlns="http://www.w3.org/2000/svg">
<path d="M20.0284 9.99789L18.5207 15.9335H34.9361L32.4407 25.4669H16.0253L14.1115 32.9033H35.2253L32.73 42.4367H0.597656L11.5023 0.461426H43.6377L41.1423 9.99481H20.0284V9.99789Z" fill="url(#paint0_linear_60_72)"/>
<path d="M68.4013 21.452L71.8228 42.4397H60.8013L58.1336 26.248H55.5828L44.5059 42.4397H33.4844L47.8105 21.452L44.389 0.464355H55.4105L58.0198 16.7146H60.629L71.6505 0.464355H82.6721L68.4044 21.452H68.4013Z" fill="url(#paint1_linear_60_72)"/>
<path d="M93.4034 9.99789L91.8957 15.9335H108.311L105.816 25.4669H89.4004L87.4865 32.9033H108.6L106.105 42.4367H73.9727L84.8773 0.461426H117.013L114.517 9.99481H93.4034V9.99789Z" fill="url(#paint2_linear_60_72)"/>
<path d="M157.496 0.464355L146.65 42.4397H132.844L126.696 19.1142L120.662 42.4397H109.641L120.545 0.464355H134.699L140.558 23.4902L146.533 0.464355H157.496Z" fill="url(#paint3_linear_60_72)"/>
<path d="M189.918 0.464508C190.924 0.464508 191.813 0.575686 192.585 0.794951C193.358 1.01422 193.998 1.35392 194.499 1.81407C195.001 2.27421 195.33 2.86407 195.487 3.58363C195.641 4.30319 195.582 5.18334 195.312 6.22098C195.001 7.49951 194.675 8.76877 194.324 10.0288C193.976 11.2888 193.647 12.558 193.339 13.8366L189.395 29.0677C189.084 30.3463 188.758 31.6155 188.41 32.8755C188.062 34.1355 187.733 35.4048 187.422 36.6833C186.881 38.7216 185.847 40.1916 184.321 41.0903C182.792 41.9889 181.022 42.4398 179.013 42.4398H157.61C156.604 42.4398 155.705 42.3317 154.912 42.1094C154.118 41.8901 153.481 41.5504 152.998 41.0903C152.515 40.6301 152.185 40.031 152.013 39.2898C151.838 38.5517 151.887 37.6808 152.158 36.6802C152.505 35.4017 152.844 34.1325 153.173 32.8725C153.502 31.6125 153.819 30.3432 154.13 29.0647L158.133 13.8335C158.441 12.555 158.77 11.2857 159.121 10.0257C159.468 8.76568 159.798 7.49642 160.105 6.21789C160.647 4.17966 161.672 2.70966 163.179 1.81098C164.687 0.912307 166.447 0.461426 168.456 0.461426H189.918V0.464508ZM177.736 32.9064C178.742 29.0678 179.727 25.26 180.693 21.483C181.659 17.7061 182.644 13.8767 183.65 10.001H169.73C168.724 13.8798 167.739 17.7061 166.773 21.483C165.807 25.26 164.819 29.0678 163.816 32.9064H177.736Z" fill="url(#paint4_linear_60_72)"/>
<path d="M200.826 0.464355H211.848L200.943 42.4397H189.922L200.826 0.464355Z" fill="url(#paint5_linear_60_72)"/>
<path d="M240.499 32.9063L238.003 42.4397H205.871L216.776 0.464355H227.797L219.388 32.9063H240.502H240.499Z" fill="url(#paint6_linear_60_72)"/>
<path d="M20.0284 9.99789L18.5207 15.9335H34.9361L32.4407 25.4669H16.0253L14.1115 32.9033H35.2253L32.73 42.4367H0.597656L11.5023 0.461426H43.6377L41.1423 9.99481H20.0284V9.99789Z" stroke="url(#paint7_linear_60_72)" stroke-width="0.923077" stroke-miterlimit="10"/>
<path d="M68.4013 21.452L71.8228 42.4397H60.8013L58.1336 26.248H55.5828L44.5059 42.4397H33.4844L47.8105 21.452L44.389 0.464355H55.4105L58.0198 16.7146H60.629L71.6505 0.464355H82.6721L68.4044 21.452H68.4013Z" stroke="url(#paint8_linear_60_72)" stroke-width="0.923077" stroke-miterlimit="10"/>
<path d="M93.4034 9.99789L91.8957 15.9335H108.311L105.816 25.4669H89.4004L87.4865 32.9033H108.6L106.105 42.4367H73.9727L84.8773 0.461426H117.013L114.517 9.99481H93.4034V9.99789Z" stroke="url(#paint9_linear_60_72)" stroke-width="0.923077" stroke-miterlimit="10"/>
<path d="M157.496 0.464355L146.65 42.4397H132.844L126.696 19.1142L120.662 42.4397H109.641L120.545 0.464355H134.699L140.558 23.4902L146.533 0.464355H157.496Z" stroke="url(#paint10_linear_60_72)" stroke-width="0.923077" stroke-miterlimit="10"/>
<path d="M189.918 0.464508C190.924 0.464508 191.813 0.575686 192.585 0.794951C193.358 1.01422 193.998 1.35392 194.499 1.81407C195.001 2.27421 195.33 2.86407 195.487 3.58363C195.641 4.30319 195.582 5.18334 195.312 6.22098C195.001 7.49951 194.675 8.76877 194.324 10.0288C193.976 11.2888 193.647 12.558 193.339 13.8366L189.395 29.0677C189.084 30.3463 188.758 31.6155 188.41 32.8755C188.062 34.1355 187.733 35.4048 187.422 36.6833C186.881 38.7216 185.847 40.1916 184.321 41.0903C182.792 41.9889 181.022 42.4398 179.013 42.4398H157.61C156.604 42.4398 155.705 42.3317 154.912 42.1094C154.118 41.8901 153.481 41.5504 152.998 41.0903C152.515 40.6301 152.185 40.031 152.013 39.2898C151.838 38.5517 151.887 37.6808 152.158 36.6802C152.505 35.4017 152.844 34.1325 153.173 32.8725C153.502 31.6125 153.819 30.3432 154.13 29.0647L158.133 13.8335C158.441 12.555 158.77 11.2857 159.121 10.0257C159.468 8.76568 159.798 7.49642 160.105 6.21789C160.647 4.17966 161.672 2.70966 163.179 1.81098C164.687 0.912307 166.447 0.461426 168.456 0.461426H189.918V0.464508ZM177.736 32.9064C178.742 29.0678 179.727 25.26 180.693 21.483C181.659 17.7061 182.644 13.8767 183.65 10.001H169.73C168.724 13.8798 167.739 17.7061 166.773 21.483C165.807 25.26 164.819 29.0678 163.816 32.9064H177.736Z" stroke="url(#paint11_linear_60_72)" stroke-width="0.923077" stroke-miterlimit="10"/>
<path d="M200.826 0.464355H211.848L200.943 42.4397H189.922L200.826 0.464355Z" stroke="url(#paint12_linear_60_72)" stroke-width="0.923077" stroke-miterlimit="10"/>
<path d="M240.499 32.9063L238.003 42.4397H205.871L216.776 0.464355H227.797L219.388 32.9063H240.502H240.499Z" stroke="url(#paint13_linear_60_72)" stroke-width="0.923077" stroke-miterlimit="10"/>
<defs>
<linearGradient id="paint0_linear_60_72" x1="120.548" y1="30.8435" x2="120.548" y2="7.91643" gradientUnits="userSpaceOnUse">
<stop stop-color="#80879B"/>
<stop offset="0.12" stop-color="#4A5D72"/>
<stop offset="0.32" stop-color="#1D2C42"/>
<stop offset="0.49" stop-color="#020C17"/>
<stop offset="0.6" stop-color="#B4B9C5"/>
<stop offset="0.7" stop-color="#FBFBFB"/>
<stop offset="1" stop-color="#FBFBFB"/>
</linearGradient>
<linearGradient id="paint1_linear_60_72" x1="120.549" y1="30.8433" x2="120.549" y2="7.91627" gradientUnits="userSpaceOnUse">
<stop stop-color="#80879B"/>
<stop offset="0.12" stop-color="#4A5D72"/>
<stop offset="0.32" stop-color="#1D2C42"/>
<stop offset="0.49" stop-color="#020C17"/>
<stop offset="0.6" stop-color="#B4B9C5"/>
<stop offset="0.7" stop-color="#FBFBFB"/>
<stop offset="1" stop-color="#FBFBFB"/>
</linearGradient>
<linearGradient id="paint2_linear_60_72" x1="120.551" y1="30.8435" x2="120.551" y2="7.91643" gradientUnits="userSpaceOnUse">
<stop stop-color="#80879B"/>
<stop offset="0.12" stop-color="#4A5D72"/>
<stop offset="0.32" stop-color="#1D2C42"/>
<stop offset="0.49" stop-color="#020C17"/>
<stop offset="0.6" stop-color="#B4B9C5"/>
<stop offset="0.7" stop-color="#FBFBFB"/>
<stop offset="1" stop-color="#FBFBFB"/>
</linearGradient>
<linearGradient id="paint3_linear_60_72" x1="120.548" y1="30.8433" x2="120.548" y2="7.91627" gradientUnits="userSpaceOnUse">
<stop stop-color="#80879B"/>
<stop offset="0.12" stop-color="#4A5D72"/>
<stop offset="0.32" stop-color="#1D2C42"/>
<stop offset="0.49" stop-color="#020C17"/>
<stop offset="0.6" stop-color="#B4B9C5"/>
<stop offset="0.7" stop-color="#FBFBFB"/>
<stop offset="1" stop-color="#FBFBFB"/>
</linearGradient>
<linearGradient id="paint4_linear_60_72" x1="120.548" y1="30.8435" x2="120.548" y2="7.91643" gradientUnits="userSpaceOnUse">
<stop stop-color="#80879B"/>
<stop offset="0.12" stop-color="#4A5D72"/>
<stop offset="0.32" stop-color="#1D2C42"/>
<stop offset="0.49" stop-color="#020C17"/>
<stop offset="0.6" stop-color="#B4B9C5"/>
<stop offset="0.7" stop-color="#FBFBFB"/>
<stop offset="1" stop-color="#FBFBFB"/>
</linearGradient>
<linearGradient id="paint5_linear_60_72" x1="120.55" y1="30.8433" x2="120.55" y2="7.91627" gradientUnits="userSpaceOnUse">
<stop stop-color="#80879B"/>
<stop offset="0.12" stop-color="#4A5D72"/>
<stop offset="0.32" stop-color="#1D2C42"/>
<stop offset="0.49" stop-color="#020C17"/>
<stop offset="0.6" stop-color="#B4B9C5"/>
<stop offset="0.7" stop-color="#FBFBFB"/>
<stop offset="1" stop-color="#FBFBFB"/>
</linearGradient>
<linearGradient id="paint6_linear_60_72" x1="120.548" y1="30.8433" x2="120.548" y2="7.91627" gradientUnits="userSpaceOnUse">
<stop stop-color="#80879B"/>
<stop offset="0.12" stop-color="#4A5D72"/>
<stop offset="0.32" stop-color="#1D2C42"/>
<stop offset="0.49" stop-color="#020C17"/>
<stop offset="0.6" stop-color="#B4B9C5"/>
<stop offset="0.7" stop-color="#FBFBFB"/>
<stop offset="1" stop-color="#FBFBFB"/>
</linearGradient>
<linearGradient id="paint7_linear_60_72" x1="0.597656" y1="21.4522" x2="240.499" y2="21.4522" gradientUnits="userSpaceOnUse">
<stop stop-color="#CACFD9"/>
<stop offset="1" stop-color="#9094A2"/>
</linearGradient>
<linearGradient id="paint8_linear_60_72" x1="0.598227" y1="21.452" x2="240.5" y2="21.452" gradientUnits="userSpaceOnUse">
<stop stop-color="#CACFD9"/>
<stop offset="1" stop-color="#9094A2"/>
</linearGradient>
<linearGradient id="paint9_linear_60_72" x1="0.600351" y1="21.4522" x2="240.502" y2="21.4522" gradientUnits="userSpaceOnUse">
<stop stop-color="#CACFD9"/>
<stop offset="1" stop-color="#9094A2"/>
</linearGradient>
<linearGradient id="paint10_linear_60_72" x1="0.597545" y1="21.452" x2="240.499" y2="21.452" gradientUnits="userSpaceOnUse">
<stop stop-color="#CACFD9"/>
<stop offset="1" stop-color="#9094A2"/>
</linearGradient>
<linearGradient id="paint11_linear_60_72" x1="0.597686" y1="21.4522" x2="240.499" y2="21.4522" gradientUnits="userSpaceOnUse">
<stop stop-color="#CACFD9"/>
<stop offset="1" stop-color="#9094A2"/>
</linearGradient>
<linearGradient id="paint12_linear_60_72" x1="0.598779" y1="21.452" x2="240.5" y2="21.452" gradientUnits="userSpaceOnUse">
<stop stop-color="#CACFD9"/>
<stop offset="1" stop-color="#9094A2"/>
</linearGradient>
<linearGradient id="paint13_linear_60_72" x1="0.597278" y1="21.452" x2="240.499" y2="21.452" gradientUnits="userSpaceOnUse">
<stop stop-color="#CACFD9"/>
<stop offset="1" stop-color="#9094A2"/>
</linearGradient>
</defs>
</svg>
